<svg xmlns="http://www.w3.org/2000/svg" xmlns:xlink="http://www.w3.org/1999/xlink" version="1.1" width="256" height="256" viewBox="0 0 256 256" xml:space="preserve">
<g style="stroke: none; stroke-width: 0; stroke-dasharray: none; stroke-linecap: butt; stroke-linejoin: miter; stroke-miterlimit: 10; fill: none; fill-rule: nonzero; opacity: 1;" transform="translate(1.4065934065934016 1.4065934065934016) scale(2.81 2.81)">
	<path d="M 76.094 23.254 c -0.142 -2.203 -1.982 -3.928 -4.19 -3.928 H 59.577 v -4.749 C 59.577 6.539 53.038 0 45 0 S 30.423 6.539 30.423 14.577 V 30 c 0 0.552 0.448 1 1 1 s 1 -0.448 1 -1 v -8.674 H 52.19 c 0.553 0 1 -0.448 1 -1 s -0.447 -1 -1 -1 H 32.423 v -4.749 C 32.423 7.642 38.065 2 45 2 c 6.936 0 12.577 5.642 12.577 12.577 V 30 c 0 0.552 0.447 1 1 1 s 1 -0.448 1 -1 v -8.674 h 12.326 c 1.156 0 2.12 0.903 2.194 2.057 l 4.021 62.276 c 0.04 0.613 -0.17 1.197 -0.59 1.646 S 76.539 88 75.925 88 h -61.85 c -0.614 0 -1.184 -0.247 -1.604 -0.695 c -0.42 -0.448 -0.629 -1.032 -0.59 -1.646 l 4.021 -62.276 c 0.074 -1.154 1.038 -2.057 2.194 -2.057 h 6.914 c 0.552 0 1 -0.448 1 -1 s -0.448 -1 -1 -1 h -6.914 c -2.208 0 -4.048 1.726 -4.19 3.928 L 9.885 85.53 c -0.074 1.154 0.336 2.299 1.127 3.143 S 12.919 90 14.075 90 h 61.85 c 1.156 0 2.272 -0.483 3.063 -1.327 s 1.201 -1.988 1.127 -3.143 L 76.094 23.254 z" style="stroke: none; stroke-width: 1; stroke-dasharray: none; stroke-linecap: butt; stroke-linejoin: miter; stroke-miterlimit: 10; fill: rgb(0,0,0); fill-rule: nonzero; opacity: 1;" transform=" matrix(1 0 0 1 0 0) " stroke-linecap="round"/>
	<polygon points="31.57,70.02 31.57,67.83 24.31,67.83 24.31,80.74 26.44,80.74 26.44,75.25 30.88,75.25 30.88,73.07 26.44,73.07 26.44,70.02 " style="stroke: none; stroke-width: 1; stroke-dasharray: none; stroke-linecap: butt; stroke-linejoin: miter; stroke-miterlimit: 10; fill: rgb(0,0,0); fill-rule: nonzero; opacity: 1;" transform="  matrix(1 0 0 1 0 0) "/>
	<path d="M 42.521 73.881 c 0.484 -0.616 0.726 -1.429 0.726 -2.438 c 0 -0.798 -0.159 -1.483 -0.475 -2.055 c -0.317 -0.573 -0.722 -0.974 -1.215 -1.206 c -0.493 -0.232 -1.314 -0.348 -2.465 -0.348 h -4.497 v 12.902 h 2.13 v -5.386 h 0.44 c 0.493 0 0.85 0.048 1.073 0.145 c 0.223 0.096 0.434 0.273 0.634 0.528 c 0.199 0.254 0.577 0.89 1.133 1.905 l 1.546 2.807 h 2.548 l -1.285 -2.517 c -0.516 -1.009 -0.924 -1.708 -1.223 -2.099 c -0.299 -0.39 -0.678 -0.749 -1.136 -1.078 C 41.349 74.885 42.037 74.497 42.521 73.881 z M 40.801 72.649 c -0.165 0.258 -0.379 0.43 -0.643 0.514 c -0.264 0.086 -0.88 0.128 -1.849 0.128 h -1.584 v -3.274 h 1.672 c 0.956 0 1.534 0.032 1.734 0.097 c 0.281 0.093 0.504 0.265 0.669 0.514 c 0.164 0.25 0.246 0.579 0.246 0.991 C 41.047 72.047 40.965 72.391 40.801 72.649 z" style="stroke: none; stroke-width: 1; stroke-dasharray: none; stroke-linecap: butt; stroke-linejoin: miter; stroke-miterlimit: 10; fill: rgb(0,0,0); fill-rule: nonzero; opacity: 1;" transform=" matrix(1 0 0 1 0 0) " stroke-linecap="round"/>
	<polygon points="54.38,70.02 54.38,67.83 46.52,67.83 46.52,80.74 54.57,80.74 54.57,78.56 48.66,78.56 48.66,75.05 53.97,75.05 53.97,72.88 48.66,72.88 48.66,70.02 " style="stroke: none; stroke-width: 1; stroke-dasharray: none; stroke-linecap: butt; stroke-linejoin: miter; stroke-miterlimit: 10; fill: rgb(0,0,0); fill-rule: nonzero; opacity: 1;" transform="  matrix(1 0 0 1 0 0) "/>
	<polygon points="65.49,70.02 65.49,67.83 57.64,67.83 57.64,80.74 65.69,80.74 65.69,78.56 59.77,78.56 59.77,75.05 65.09,75.05 65.09,72.88 59.77,72.88 59.77,70.02 " style="stroke: none; stroke-width: 1; stroke-dasharray: none; stroke-linecap: butt; stroke-linejoin: miter; stroke-miterlimit: 10; fill: rgb(0,0,0); fill-rule: nonzero; opacity: 1;" transform="  matrix(1 0 0 1 0 0) "/>
	<path d="M 30.016 46.888 l 2.479 13.901 c 0.117 0.658 0.688 1.136 1.357 1.136 h 22.295 c 0.669 0 1.24 -0.478 1.357 -1.136 l 2.479 -13.901 c 0.697 -0.132 1.353 -0.462 1.879 -0.957 c 0.75 -0.707 1.181 -1.698 1.181 -2.72 c 0 -2.063 -1.679 -3.741 -3.742 -3.741 c -2.062 0 -3.741 1.678 -3.741 3.741 c 0 0.202 0.017 0.402 0.049 0.601 l -4.865 2.933 l -2.961 -5.957 c 0.611 -0.678 0.959 -1.565 0.959 -2.501 c 0 -2.063 -1.679 -3.741 -3.741 -3.741 c -2.063 0 -3.741 1.678 -3.741 3.741 c 0 0.935 0.348 1.823 0.958 2.5 l -2.96 5.958 l -4.866 -2.934 c 0.032 -0.198 0.048 -0.398 0.048 -0.601 c 0 -2.063 -1.678 -3.741 -3.741 -3.741 s -3.741 1.678 -3.741 3.741 c 0 1.022 0.431 2.014 1.181 2.72 C 28.664 46.426 29.32 46.756 30.016 46.888 z M 30.699 41.47 c 0.96 0 1.741 0.781 1.741 1.741 c 0 0.232 -0.046 0.458 -0.138 0.674 c -0.194 0.458 -0.021 0.99 0.405 1.247 l 6.447 3.886 c 0.239 0.145 0.527 0.181 0.796 0.104 c 0.268 -0.078 0.491 -0.265 0.616 -0.515 l 3.783 -7.614 c 0.222 -0.447 0.08 -0.99 -0.333 -1.271 c -0.474 -0.323 -0.757 -0.859 -0.757 -1.435 c 0 -0.96 0.781 -1.741 1.741 -1.741 s 1.741 0.781 1.741 1.741 c 0 0.576 -0.283 1.112 -0.757 1.435 c -0.413 0.281 -0.556 0.824 -0.333 1.271 l 3.783 7.614 c 0.124 0.25 0.348 0.437 0.616 0.515 c 0.269 0.077 0.558 0.04 0.796 -0.104 l 6.446 -3.886 c 0.425 -0.256 0.598 -0.787 0.405 -1.245 c -0.092 -0.218 -0.139 -0.445 -0.139 -0.676 c 0 -0.96 0.781 -1.741 1.741 -1.741 c 0.961 0 1.742 0.781 1.742 1.741 c 0 0.48 -0.196 0.929 -0.552 1.264 c -0.356 0.334 -0.82 0.496 -1.295 0.475 c -0.5 -0.029 -0.956 0.323 -1.045 0.822 l -2.523 14.153 H 34.373 l -2.524 -14.153 c -0.089 -0.499 -0.522 -0.857 -1.045 -0.822 c -0.473 0.027 -0.938 -0.139 -1.294 -0.474 c -0.356 -0.335 -0.552 -0.784 -0.552 -1.264 C 28.958 42.251 29.739 41.47 30.699 41.47 z" style="stroke: none; stroke-width: 1; stroke-dasharray: none; stroke-linecap: butt; stroke-linejoin: miter; stroke-miterlimit: 10; fill: rgb(0,0,0); fill-rule: nonzero; opacity: 1;" transform=" matrix(1 0 0 1 0 0) " stroke-linecap="round"/>
	<circle cx="45" cy="54.28" r="2" style="stroke: none; stroke-width: 1; stroke-dasharray: none; stroke-linecap: butt; stroke-linejoin: miter; stroke-miterlimit: 10; fill: rgb(0,0,0); fill-rule: nonzero; opacity: 1;" transform="  matrix(1 0 0 1 0 0) "/>
</g>
</svg>