<svg width="66" height="13" viewBox="0 0 66 13" fill="none" xmlns="http://www.w3.org/2000/svg">
<g clip-path="url(#clip0_1_410)">
<path d="M6.3565 0.923034C6.47402 1.00418 6.53134 1.11363 6.59224 1.24026C6.5996 1.25547 6.60696 1.27067 6.61454 1.28634C6.63854 1.33606 6.66232 1.38589 6.68609 1.43573C6.70294 1.4708 6.7198 1.50587 6.73667 1.54094C6.85113 1.77936 6.96333 2.01879 7.07413 2.25893C7.1783 2.48469 7.28429 2.70954 7.39068 2.93426C7.52428 3.21653 7.65682 3.49924 7.78771 3.78277C7.84769 3.91243 7.90841 4.04164 7.97066 4.17023C7.98277 4.19525 7.99487 4.22027 8.00734 4.24605C8.03019 4.29311 8.05315 4.34012 8.07626 4.38705C8.09133 4.41808 8.09133 4.41808 8.10671 4.44974C8.12 4.47679 8.12 4.47679 8.13356 4.5044C8.15239 4.55145 8.15239 4.55145 8.15239 4.62176C8.17944 4.62345 8.17944 4.62345 8.20704 4.62517C8.40597 4.63886 8.60148 4.66386 8.79851 4.69408C8.8315 4.69906 8.86449 4.70403 8.89748 4.70899C8.98611 4.72234 9.07471 4.73584 9.16331 4.74938C9.23757 4.76072 9.31184 4.77199 9.38611 4.78327C9.56133 4.80987 9.73653 4.8366 9.91172 4.86341C10.092 4.89098 10.2723 4.91833 10.4526 4.94556C10.6081 4.96904 10.7635 4.99268 10.9188 5.01644C11.0114 5.0306 11.104 5.04469 11.1965 5.05862C11.2835 5.07171 11.3704 5.085 11.4573 5.09844C11.5042 5.10563 11.5511 5.11263 11.598 5.11962C11.9825 5.1796 11.9825 5.1796 12.0884 5.30292C12.1534 5.39548 12.1649 5.44105 12.1675 5.5534C12.1684 5.57745 12.1693 5.6015 12.1702 5.62628C12.1449 5.81257 11.9761 5.93559 11.8482 6.06024C11.8092 6.09845 11.7702 6.13672 11.7313 6.17505C11.7141 6.19183 11.6969 6.20861 11.6792 6.22589C11.632 6.27457 11.5877 6.32395 11.5434 6.37519C11.4589 6.47256 11.3694 6.56367 11.2776 6.65423C11.2528 6.67892 11.2528 6.67892 11.2275 6.70411C11.1576 6.77365 11.0875 6.84305 11.0175 6.91247C10.966 6.96355 10.9145 7.0147 10.8631 7.06586C10.8475 7.08122 10.832 7.09658 10.8159 7.11241C10.7417 7.18629 10.6701 7.2612 10.6016 7.34051C10.5187 7.43657 10.4304 7.52604 10.3401 7.61517C10.3153 7.63986 10.3153 7.63986 10.29 7.66504C10.2201 7.73459 10.15 7.80399 10.08 7.87341C10.0285 7.92449 9.97702 7.97564 9.92559 8.02679C9.91003 8.04216 9.89447 8.05752 9.87845 8.07335C9.78812 8.16321 9.70284 8.25558 9.62082 8.35311C9.58208 8.3952 9.58208 8.3952 9.53481 8.43324C9.4861 8.47321 9.45238 8.50636 9.41802 8.55926C9.41249 8.61831 9.41249 8.61831 9.42182 8.68298C9.42462 8.70804 9.42742 8.7331 9.43031 8.75892C9.45041 8.90605 9.47341 9.05257 9.4979 9.19902C9.50369 9.23412 9.50947 9.26922 9.51523 9.30433C9.52757 9.37934 9.53998 9.45434 9.55245 9.52934C9.57217 9.64802 9.59171 9.76673 9.61123 9.88544C9.6597 10.1801 9.70841 10.4747 9.75714 10.7693C9.7951 10.9987 9.83299 11.2282 9.87071 11.4577C9.8901 11.5756 9.90961 11.6936 9.92922 11.8115C9.94139 11.8848 9.95345 11.9581 9.96548 12.0315C9.97106 12.0654 9.97669 12.0993 9.98237 12.1332C9.99014 12.1796 9.99773 12.226 10.0053 12.2725C10.0096 12.2984 10.0139 12.3243 10.0183 12.351C10.0388 12.5209 10.0291 12.6364 9.93364 12.778C9.83345 12.8733 9.74227 12.9102 9.60213 12.9071C9.44287 12.8788 9.30023 12.7852 9.16021 12.7077C9.13777 12.6954 9.11533 12.6831 9.09222 12.6704C8.94621 12.59 8.80064 12.509 8.65524 12.4276C8.50068 12.3411 8.34559 12.2556 8.19048 12.1701C8.16203 12.1544 8.13359 12.1387 8.10515 12.1231C8.01934 12.0757 7.93352 12.0284 7.84771 11.9811C7.52179 11.8015 7.19589 11.6219 6.8705 11.4413C6.8303 11.419 6.79006 11.3968 6.74983 11.3745C6.64135 11.3144 6.5332 11.254 6.4269 11.1901C6.40397 11.1764 6.40397 11.1764 6.38057 11.1625C6.34288 11.1398 6.30545 11.1166 6.26806 11.0934C6.19315 11.0611 6.16762 11.0688 6.08989 11.0905C6.04382 11.1118 5.99852 11.1349 5.95385 11.159C5.92739 11.1732 5.90093 11.1874 5.87367 11.2021C5.84515 11.2176 5.81664 11.2332 5.78814 11.2487C5.75853 11.2647 5.72892 11.2807 5.69931 11.2967C5.49568 11.407 5.29371 11.5201 5.09253 11.6348C4.93393 11.7251 4.77403 11.8126 4.61333 11.8991C4.4285 11.9986 4.24498 12.1 4.06255 12.2038C3.85335 12.3228 3.64249 12.4385 3.43054 12.5525C3.27471 12.6365 3.11989 12.722 2.9664 12.8102C2.83224 12.8868 2.72747 12.9133 2.57427 12.8952C2.44952 12.8526 2.37949 12.7748 2.31646 12.6608C2.24337 12.4416 2.33556 12.1472 2.3729 11.9243C2.37869 11.8891 2.38447 11.854 2.39023 11.8189C2.40256 11.7438 2.41497 11.6688 2.42745 11.5938C2.44718 11.4751 2.46672 11.3564 2.48623 11.2377C2.52411 11.0074 2.56218 10.7771 2.60028 10.5468C2.64887 10.253 2.69741 9.95926 2.74571 9.66546C2.76511 9.54751 2.78462 9.42957 2.80422 9.31165C2.81638 9.23837 2.82844 9.16507 2.84048 9.09177C2.84607 9.05785 2.8517 9.02393 2.85737 8.99002C2.86512 8.94366 2.87272 8.89727 2.88031 8.85089C2.88674 8.81201 2.88674 8.81201 2.89331 8.77234C2.90244 8.69951 2.90786 8.63252 2.90239 8.55926C2.86004 8.5071 2.82137 8.46592 2.77202 8.42157C2.74751 8.39875 2.72307 8.37586 2.69869 8.3529C2.6807 8.33599 2.6807 8.33599 2.66234 8.31874C2.62092 8.2778 2.58326 8.23519 2.54548 8.19089C2.46024 8.09279 2.37008 8.00089 2.27764 7.90961C2.26109 7.89315 2.24455 7.87669 2.2275 7.85974C2.17518 7.8077 2.12278 7.75574 2.07036 7.7038C2.0012 7.63526 1.93212 7.56665 1.86309 7.49798C1.84753 7.48262 1.83197 7.46726 1.81595 7.45143C1.72684 7.36279 1.64302 7.2713 1.56091 7.17617C1.49068 7.09699 1.41542 7.02301 1.34014 6.94867C1.32359 6.93221 1.30705 6.91575 1.29 6.8988C1.23768 6.84676 1.18528 6.7948 1.13286 6.74286C1.0637 6.67432 0.994621 6.60571 0.925587 6.53705C0.910031 6.52169 0.894474 6.50632 0.878446 6.4905C0.787674 6.40019 0.701965 6.30703 0.61832 6.2101C0.576067 6.16176 0.531728 6.11631 0.485677 6.07159C0.461408 6.04776 0.461408 6.04776 0.43665 6.02344C0.403304 5.99092 0.369917 5.95846 0.336491 5.92602C0.320464 5.91025 0.304436 5.89448 0.287923 5.87823C0.273502 5.86421 0.259081 5.85018 0.244223 5.83573C0.149027 5.72785 0.150174 5.6261 0.152882 5.48694C0.165779 5.36667 0.219405 5.30845 0.307235 5.23108C0.429399 5.15211 0.581836 5.14667 0.722792 5.12661C0.755378 5.12171 0.787958 5.11677 0.820533 5.1118C0.887773 5.10159 0.955037 5.09156 1.02233 5.08169C1.14263 5.06399 1.26275 5.04512 1.38288 5.02626C1.5295 5.00328 1.6762 4.98078 1.8229 4.95822C1.85443 4.95337 1.88597 4.94851 1.91751 4.94366C2.06502 4.92096 2.21253 4.89828 2.36005 4.87563C2.5287 4.84974 2.69733 4.82377 2.86595 4.79772C2.9979 4.77734 3.12986 4.75704 3.26184 4.7368C3.34007 4.7248 3.41829 4.71277 3.49651 4.70065C3.58305 4.68726 3.66961 4.67401 3.75618 4.66078C3.7817 4.6568 3.80723 4.65282 3.83353 4.64872C3.946 4.63167 4.05386 4.61655 4.16802 4.62176C4.17204 4.60883 4.17606 4.5959 4.1802 4.58257C4.22129 4.45437 4.27075 4.3342 4.32943 4.21316C4.33819 4.19482 4.34696 4.17648 4.35599 4.15758C4.37478 4.1183 4.39362 4.07905 4.41251 4.03982C4.44249 3.97757 4.47232 3.91526 4.50211 3.85293C4.53275 3.78882 4.56339 3.72471 4.59409 3.66062C4.6902 3.45991 4.78527 3.25871 4.87993 3.05731C4.88764 3.04094 4.89534 3.02456 4.90328 3.00769C5.00605 2.78919 5.10804 2.57035 5.20952 2.35126C5.26071 2.24087 5.31198 2.13051 5.36333 2.0202C5.37536 1.99436 5.37536 1.99436 5.38763 1.968C5.44081 1.85383 5.49416 1.73975 5.54768 1.62575C5.56519 1.58839 5.58267 1.55101 5.6001 1.51361C5.84331 0.991966 5.84331 0.991966 5.97271 0.918639C6.10012 0.876169 6.2301 0.878562 6.3565 0.923034Z" fill="#FFC106"/>
</g>
<g clip-path="url(#clip1_1_410)">
<path d="M19.69 0.923034C19.8075 1.00418 19.8648 1.11363 19.9257 1.24026C19.9331 1.25547 19.9404 1.27067 19.948 1.28634C19.972 1.33606 19.9958 1.38589 20.0196 1.43573C20.0364 1.4708 20.0533 1.50587 20.0701 1.54094C20.1846 1.77936 20.2968 2.01879 20.4076 2.25893C20.5118 2.48469 20.6178 2.70954 20.7241 2.93426C20.8577 3.21653 20.9903 3.49924 21.1212 3.78277C21.1812 3.91243 21.2419 4.04164 21.3041 4.17023C21.3162 4.19525 21.3283 4.22027 21.3408 4.24605C21.3637 4.29311 21.3866 4.34012 21.4097 4.38705C21.4248 4.41808 21.4248 4.41808 21.4402 4.44974C21.4535 4.47679 21.4535 4.47679 21.467 4.5044C21.4859 4.55145 21.4859 4.55145 21.4859 4.62176C21.5129 4.62345 21.5129 4.62345 21.5405 4.62517C21.7394 4.63886 21.9349 4.66386 22.132 4.69408C22.165 4.69906 22.198 4.70403 22.231 4.70899C22.3196 4.72234 22.4082 4.73584 22.4968 4.74938C22.571 4.76072 22.6453 4.77199 22.7196 4.78327C22.8948 4.80987 23.07 4.8366 23.2452 4.86341C23.4255 4.89098 23.6058 4.91833 23.7861 4.94556C23.9415 4.96904 24.0969 4.99268 24.2523 5.01644C24.3449 5.0306 24.4374 5.04469 24.53 5.05862C24.617 5.07171 24.7039 5.085 24.7908 5.09844C24.8377 5.10563 24.8845 5.11263 24.9314 5.11962C25.3159 5.1796 25.3159 5.1796 25.4219 5.30292C25.4869 5.39548 25.4983 5.44105 25.501 5.5534C25.5019 5.57745 25.5028 5.6015 25.5037 5.62628C25.4784 5.81257 25.3095 5.93559 25.1817 6.06024C25.1426 6.09845 25.1037 6.13672 25.0648 6.17505C25.0476 6.19183 25.0304 6.20861 25.0126 6.22589C24.9655 6.27457 24.9211 6.32395 24.8769 6.37519C24.7924 6.47256 24.7028 6.56367 24.6111 6.65423C24.5863 6.67892 24.5863 6.67892 24.561 6.70411C24.491 6.77365 24.421 6.84305 24.3509 6.91247C24.2994 6.96355 24.248 7.0147 24.1966 7.06586C24.181 7.08122 24.1654 7.09658 24.1494 7.11241C24.0751 7.18629 24.0035 7.2612 23.9351 7.34051C23.8522 7.43657 23.7639 7.52604 23.6736 7.61517C23.6488 7.63986 23.6488 7.63986 23.6235 7.66504C23.5535 7.73459 23.4835 7.80399 23.4134 7.87341C23.3619 7.92449 23.3105 7.97564 23.2591 8.02679C23.2435 8.04216 23.2279 8.05752 23.2119 8.07335C23.1216 8.16321 23.0363 8.25558 22.9543 8.35311C22.9156 8.3952 22.9156 8.3952 22.8683 8.43324C22.8196 8.47321 22.7858 8.50636 22.7515 8.55926C22.746 8.61831 22.746 8.61831 22.7553 8.68298C22.7581 8.70804 22.7609 8.7331 22.7638 8.75892C22.7839 8.90605 22.8069 9.05257 22.8314 9.19902C22.8372 9.23412 22.8429 9.26922 22.8487 9.30433C22.861 9.37934 22.8735 9.45434 22.8859 9.52934C22.9056 9.64802 22.9252 9.76673 22.9447 9.88544C22.9932 10.1801 23.0419 10.4747 23.0906 10.7693C23.1286 10.9987 23.1665 11.2282 23.2042 11.4577C23.2236 11.5756 23.2431 11.6936 23.2627 11.8115C23.2749 11.8848 23.2869 11.9581 23.2989 12.0315C23.3045 12.0654 23.3102 12.0993 23.3158 12.1332C23.3236 12.1796 23.3312 12.226 23.3388 12.2725C23.3431 12.2984 23.3474 12.3243 23.3518 12.351C23.3722 12.5209 23.3625 12.6364 23.2671 12.778C23.1669 12.8733 23.0757 12.9102 22.9356 12.9071C22.7763 12.8788 22.6337 12.7852 22.4937 12.7077C22.4712 12.6954 22.4488 12.6831 22.4257 12.6704C22.2797 12.59 22.1341 12.509 21.9887 12.4276C21.8341 12.3411 21.6791 12.2556 21.5239 12.1701C21.4955 12.1544 21.4671 12.1387 21.4386 12.1231C21.3528 12.0757 21.267 12.0284 21.1812 11.9811C20.8553 11.8015 20.5294 11.6219 20.204 11.4413C20.1638 11.419 20.1235 11.3968 20.0833 11.3745C19.9748 11.3144 19.8667 11.254 19.7604 11.1901C19.7374 11.1764 19.7374 11.1764 19.714 11.1625C19.6763 11.1398 19.6389 11.1166 19.6015 11.0934C19.5266 11.0611 19.5011 11.0688 19.4234 11.0905C19.3773 11.1118 19.332 11.1349 19.2873 11.159C19.2609 11.1732 19.2344 11.1874 19.2071 11.2021C19.1786 11.2176 19.1501 11.2332 19.1216 11.2487C19.092 11.2647 19.0624 11.2807 19.0328 11.2967C18.8291 11.407 18.6272 11.5201 18.426 11.6348C18.2674 11.7251 18.1075 11.8126 17.9468 11.8991C17.762 11.9986 17.5784 12.1 17.396 12.2038C17.1868 12.3228 16.976 12.4385 16.764 12.5525C16.6082 12.6365 16.4534 12.722 16.2999 12.8102C16.1657 12.8868 16.0609 12.9133 15.9077 12.8952C15.783 12.8526 15.713 12.7748 15.6499 12.6608C15.5768 12.4416 15.669 12.1472 15.7064 11.9243C15.7122 11.8891 15.7179 11.854 15.7237 11.8189C15.736 11.7438 15.7484 11.6688 15.7609 11.5938C15.7807 11.4751 15.8002 11.3564 15.8197 11.2377C15.8576 11.0074 15.8956 10.7771 15.9337 10.5468C15.9823 10.253 16.0309 9.95926 16.0792 9.66546C16.0986 9.54751 16.1181 9.42957 16.1377 9.31165C16.1498 9.23837 16.1619 9.16507 16.1739 9.09177C16.1795 9.05785 16.1852 9.02393 16.1908 8.99002C16.1986 8.94366 16.2062 8.89727 16.2138 8.85089C16.2202 8.81201 16.2202 8.81201 16.2268 8.77234C16.2359 8.69951 16.2413 8.63252 16.2359 8.55926C16.1935 8.5071 16.1548 8.46592 16.1055 8.42157C16.081 8.39875 16.0565 8.37586 16.0322 8.3529C16.0142 8.33599 16.0142 8.33599 15.9958 8.31874C15.9544 8.2778 15.9167 8.23519 15.879 8.19089C15.7937 8.09279 15.7035 8.00089 15.6111 7.90961C15.5946 7.89315 15.578 7.87669 15.561 7.85974C15.5086 7.8077 15.4562 7.75574 15.4038 7.7038C15.3347 7.63526 15.2656 7.56665 15.1966 7.49798C15.181 7.48262 15.1654 7.46726 15.1494 7.45143C15.0603 7.36279 14.9765 7.2713 14.8944 7.17617C14.8241 7.09699 14.7489 7.02301 14.6736 6.94867C14.6571 6.93221 14.6405 6.91575 14.6235 6.8988C14.5711 6.84676 14.5187 6.7948 14.4663 6.74286C14.3972 6.67432 14.3281 6.60571 14.2591 6.53705C14.2435 6.52169 14.2279 6.50632 14.2119 6.4905C14.1211 6.40019 14.0354 6.30703 13.9518 6.2101C13.9095 6.16176 13.8652 6.11631 13.8191 6.07159C13.7949 6.04776 13.7949 6.04776 13.7701 6.02344C13.7368 5.99092 13.7034 5.95846 13.67 5.92602C13.6539 5.91025 13.6379 5.89448 13.6214 5.87823C13.607 5.86421 13.5926 5.85018 13.5777 5.83573C13.4825 5.72785 13.4836 5.6261 13.4864 5.48694C13.4992 5.36667 13.5529 5.30845 13.6407 5.23108C13.7629 5.15211 13.9153 5.14667 14.0563 5.12661C14.0888 5.12171 14.1214 5.11677 14.154 5.1118C14.2212 5.10159 14.2885 5.09156 14.3558 5.08169C14.4761 5.06399 14.5962 5.04512 14.7163 5.02626C14.863 5.00328 15.0097 4.98078 15.1564 4.95822C15.1879 4.95337 15.2194 4.94851 15.251 4.94366C15.3985 4.92096 15.546 4.89828 15.6935 4.87563C15.8622 4.84974 16.0308 4.82377 16.1994 4.79772C16.3314 4.77734 16.4633 4.75704 16.5953 4.7368C16.6735 4.7248 16.7518 4.71277 16.83 4.70065C16.9165 4.68726 17.0031 4.67401 17.0896 4.66078C17.1152 4.6568 17.1407 4.65282 17.167 4.64872C17.2795 4.63167 17.3873 4.61655 17.5015 4.62176C17.5055 4.60883 17.5095 4.5959 17.5137 4.58257C17.5548 4.45437 17.6042 4.3342 17.6629 4.21316C17.6717 4.19482 17.6804 4.17648 17.6895 4.15758C17.7082 4.1183 17.7271 4.07905 17.746 4.03982C17.776 3.97757 17.8058 3.91526 17.8356 3.85293C17.8662 3.78882 17.8969 3.72471 17.9276 3.66062C18.0237 3.45991 18.1187 3.25871 18.2134 3.05731C18.2211 3.04094 18.2288 3.02456 18.2367 3.00769C18.3395 2.78919 18.4415 2.57035 18.543 2.35126C18.5942 2.24087 18.6454 2.13051 18.6968 2.0202C18.7088 1.99436 18.7088 1.99436 18.7211 1.968C18.7743 1.85383 18.8276 1.73975 18.8811 1.62575C18.8987 1.58839 18.9161 1.55101 18.9336 1.51361C19.1768 0.991966 19.1768 0.991966 19.3062 0.918639C19.4336 0.876169 19.5636 0.878562 19.69 0.923034Z" fill="#FFC106"/>
</g>
<g clip-path="url(#clip2_1_410)">
<path d="M33.0232 0.923034C33.1407 1.00418 33.1981 1.11363 33.259 1.24026C33.2663 1.25547 33.2737 1.27067 33.2813 1.28634C33.3053 1.33606 33.329 1.38589 33.3528 1.43573C33.3697 1.4708 33.3865 1.50587 33.4034 1.54094C33.5179 1.77936 33.6301 2.01879 33.7408 2.25893C33.845 2.48469 33.951 2.70954 34.0574 2.93426C34.191 3.21653 34.3235 3.49924 34.4544 3.78277C34.5144 3.91243 34.5751 4.04164 34.6374 4.17023C34.6495 4.19525 34.6616 4.22027 34.6741 4.24605C34.6969 4.29311 34.7199 4.34012 34.743 4.38705C34.7581 4.41808 34.7581 4.41808 34.7734 4.44974C34.7867 4.47679 34.7867 4.47679 34.8003 4.5044C34.8191 4.55145 34.8191 4.55145 34.8191 4.62176C34.8462 4.62345 34.8462 4.62345 34.8738 4.62517C35.0727 4.63886 35.2682 4.66386 35.4652 4.69408C35.4982 4.69906 35.5312 4.70403 35.5642 4.70899C35.6528 4.72234 35.7414 4.73584 35.83 4.74938C35.9043 4.76072 35.9786 4.77199 36.0528 4.78327C36.2281 4.80987 36.4033 4.8366 36.5784 4.86341C36.7587 4.89098 36.939 4.91833 37.1194 4.94556C37.2748 4.96904 37.4302 4.99268 37.5856 5.01644C37.6781 5.0306 37.7707 5.04469 37.8633 5.05862C37.9502 5.07171 38.0372 5.085 38.1241 5.09844C38.1709 5.10563 38.2178 5.11263 38.2647 5.11962C38.6492 5.1796 38.6492 5.1796 38.7551 5.30292C38.8201 5.39548 38.8316 5.44105 38.8343 5.5534C38.8351 5.57745 38.836 5.6015 38.8369 5.62628C38.8117 5.81257 38.6428 5.93559 38.5149 6.06024C38.4759 6.09845 38.4369 6.13672 38.398 6.17505C38.3808 6.19183 38.3636 6.20861 38.3459 6.22589C38.2988 6.27457 38.2544 6.32395 38.2102 6.37519C38.1256 6.47256 38.0361 6.56367 37.9444 6.65423C37.9195 6.67892 37.9195 6.67892 37.8942 6.70411C37.8243 6.77365 37.7542 6.84305 37.6842 6.91247C37.6327 6.96355 37.5812 7.0147 37.5298 7.06586C37.5143 7.08122 37.4987 7.09658 37.4827 7.11241C37.4084 7.18629 37.3368 7.2612 37.2683 7.34051C37.1854 7.43657 37.0971 7.52604 37.0069 7.61517C36.982 7.63986 36.982 7.63986 36.9567 7.66504C36.8868 7.73459 36.8167 7.80399 36.7467 7.87341C36.6952 7.92449 36.6437 7.97564 36.5923 8.02679C36.5768 8.04216 36.5612 8.05752 36.5452 8.07335C36.4548 8.16321 36.3696 8.25558 36.2875 8.35311C36.2488 8.3952 36.2488 8.3952 36.2015 8.43324C36.1528 8.47321 36.1191 8.50636 36.0847 8.55926C36.0792 8.61831 36.0792 8.61831 36.0885 8.68298C36.0913 8.70804 36.0941 8.7331 36.097 8.75892C36.1171 8.90605 36.1401 9.05257 36.1646 9.19902C36.1704 9.23412 36.1762 9.26922 36.182 9.30433C36.1943 9.37934 36.2067 9.45434 36.2192 9.52934C36.2389 9.64802 36.2584 9.76673 36.278 9.88544C36.3264 10.1801 36.3751 10.4747 36.4239 10.7693C36.4618 10.9987 36.4997 11.2282 36.5374 11.4577C36.5568 11.5756 36.5763 11.6936 36.5959 11.8115C36.6081 11.8848 36.6202 11.9581 36.6322 12.0315C36.6378 12.0654 36.6434 12.0993 36.6491 12.1332C36.6569 12.1796 36.6644 12.226 36.672 12.2725C36.6763 12.2984 36.6806 12.3243 36.685 12.351C36.7055 12.5209 36.6958 12.6364 36.6004 12.778C36.5002 12.8733 36.409 12.9102 36.2689 12.9071C36.1096 12.8788 35.9669 12.7852 35.8269 12.7077C35.8045 12.6954 35.7821 12.6831 35.7589 12.6704C35.6129 12.59 35.4674 12.509 35.322 12.4276C35.1674 12.3411 35.0123 12.2556 34.8572 12.1701C34.8288 12.1544 34.8003 12.1387 34.7719 12.1231C34.6861 12.0757 34.6002 12.0284 34.5144 11.9811C34.1885 11.8015 33.8626 11.6219 33.5372 11.4413C33.497 11.419 33.4568 11.3968 33.4166 11.3745C33.3081 11.3144 33.1999 11.254 33.0936 11.1901C33.0707 11.1764 33.0707 11.1764 33.0473 11.1625C33.0096 11.1398 32.9722 11.1166 32.9348 11.0934C32.8599 11.0611 32.8343 11.0688 32.7566 11.0905C32.7105 11.1118 32.6652 11.1349 32.6206 11.159C32.5941 11.1732 32.5677 11.1874 32.5404 11.2021C32.5119 11.2176 32.4834 11.2332 32.4549 11.2487C32.4253 11.2647 32.3956 11.2807 32.366 11.2967C32.1624 11.407 31.9604 11.5201 31.7593 11.6348C31.6007 11.7251 31.4408 11.8126 31.2801 11.8991C31.0952 11.9986 30.9117 12.1 30.7293 12.2038C30.5201 12.3228 30.3092 12.4385 30.0973 12.5525C29.9414 12.6365 29.7866 12.722 29.6331 12.8102C29.499 12.8868 29.3942 12.9133 29.241 12.8952C29.1162 12.8526 29.0462 12.7748 28.9832 12.6608C28.9101 12.4416 29.0023 12.1472 29.0396 11.9243C29.0454 11.8891 29.0512 11.854 29.057 11.8189C29.0693 11.7438 29.0817 11.6688 29.0942 11.5938C29.1139 11.4751 29.1334 11.3564 29.153 11.2377C29.1908 11.0074 29.2289 10.7771 29.267 10.5468C29.3156 10.253 29.3641 9.95926 29.4124 9.66546C29.4318 9.54751 29.4513 9.42957 29.4709 9.31165C29.4831 9.23837 29.4952 9.16507 29.5072 9.09177C29.5128 9.05785 29.5184 9.02393 29.5241 8.99002C29.5318 8.94366 29.5394 8.89727 29.547 8.85089C29.5535 8.81201 29.5535 8.81201 29.56 8.77234C29.5692 8.69951 29.5746 8.63252 29.5691 8.55926C29.5268 8.5071 29.4881 8.46592 29.4387 8.42157C29.4142 8.39875 29.3898 8.37586 29.3654 8.3529C29.3474 8.33599 29.3474 8.33599 29.3291 8.31874C29.2876 8.2778 29.25 8.23519 29.2122 8.19089C29.127 8.09279 29.0368 8.00089 28.9444 7.90961C28.9278 7.89315 28.9113 7.87669 28.8942 7.85974C28.8419 7.8077 28.7895 7.75574 28.7371 7.7038C28.6679 7.63526 28.5988 7.56665 28.5298 7.49798C28.5143 7.48262 28.4987 7.46726 28.4827 7.45143C28.3936 7.36279 28.3097 7.2713 28.2276 7.17617C28.1574 7.09699 28.0821 7.02301 28.0069 6.94867C27.9903 6.93221 27.9738 6.91575 27.9567 6.8988C27.9044 6.84676 27.852 6.7948 27.7996 6.74286C27.7304 6.67432 27.6613 6.60571 27.5923 6.53705C27.5768 6.52169 27.5612 6.50632 27.5452 6.4905C27.4544 6.40019 27.3687 6.30703 27.285 6.2101C27.2428 6.16176 27.1984 6.11631 27.1524 6.07159C27.1281 6.04776 27.1281 6.04776 27.1034 6.02344C27.07 5.99092 27.0366 5.95846 27.0032 5.92602C26.9872 5.91025 26.9712 5.89448 26.9546 5.87823C26.9402 5.86421 26.9258 5.85018 26.9109 5.83573C26.8157 5.72785 26.8169 5.6261 26.8196 5.48694C26.8325 5.36667 26.8861 5.30845 26.974 5.23108C27.0961 5.15211 27.2486 5.14667 27.3895 5.12661C27.4221 5.12171 27.4547 5.11677 27.4873 5.1118C27.5545 5.10159 27.6218 5.09156 27.689 5.08169C27.8094 5.06399 27.9295 5.04512 28.0496 5.02626C28.1962 5.00328 28.3429 4.98078 28.4896 4.95822C28.5212 4.95337 28.5527 4.94851 28.5842 4.94366C28.7317 4.92096 28.8793 4.89828 29.0268 4.87563C29.1954 4.84974 29.364 4.82377 29.5327 4.79772C29.6646 4.77734 29.7966 4.75704 29.9286 4.7368C30.0068 4.7248 30.085 4.71277 30.1632 4.70065C30.2498 4.68726 30.3363 4.67401 30.4229 4.66078C30.4484 4.6568 30.474 4.65282 30.5003 4.64872C30.6127 4.63167 30.7206 4.61655 30.8347 4.62176C30.8388 4.60883 30.8428 4.5959 30.8469 4.58257C30.888 4.45437 30.9375 4.3342 30.9961 4.21316C31.0049 4.19482 31.0137 4.17648 31.0227 4.15758C31.0415 4.1183 31.0603 4.07905 31.0792 4.03982C31.1092 3.97757 31.139 3.91526 31.1688 3.85293C31.1995 3.78882 31.2301 3.72471 31.2608 3.66062C31.3569 3.45991 31.452 3.25871 31.5467 3.05731C31.5544 3.04094 31.5621 3.02456 31.57 3.00769C31.6728 2.78919 31.7748 2.57035 31.8762 2.35126C31.9274 2.24087 31.9787 2.13051 32.0301 2.0202C32.0421 1.99436 32.0421 1.99436 32.0544 1.968C32.1075 1.85383 32.1609 1.73975 32.2144 1.62575C32.2319 1.58839 32.2494 1.55101 32.2668 1.51361C32.51 0.991966 32.51 0.991966 32.6394 0.918639C32.7668 0.876169 32.8968 0.878562 33.0232 0.923034Z" fill="#FFC106"/>
</g>
<g clip-path="url(#clip3_1_410)">
<path d="M46.3565 0.923034C46.474 1.00418 46.5314 1.11363 46.5923 1.24026C46.5996 1.25547 46.607 1.27067 46.6146 1.28634C46.6386 1.33606 46.6623 1.38589 46.6861 1.43573C46.703 1.4708 46.7198 1.50587 46.7367 1.54094C46.8512 1.77936 46.9634 2.01879 47.0742 2.25893C47.1783 2.48469 47.2843 2.70954 47.3907 2.93426C47.5243 3.21653 47.6568 3.49924 47.7877 3.78277C47.8477 3.91243 47.9084 4.04164 47.9707 4.17023C47.9828 4.19525 47.9949 4.22027 48.0074 4.24605C48.0302 4.29311 48.0532 4.34012 48.0763 4.38705C48.0914 4.41808 48.0914 4.41808 48.1067 4.44974C48.12 4.47679 48.12 4.47679 48.1336 4.5044C48.1524 4.55145 48.1524 4.55145 48.1524 4.62176C48.1795 4.62345 48.1795 4.62345 48.2071 4.62517C48.406 4.63886 48.6015 4.66386 48.7985 4.69408C48.8315 4.69906 48.8645 4.70403 48.8975 4.70899C48.9861 4.72234 49.0747 4.73584 49.1633 4.74938C49.2376 4.76072 49.3119 4.77199 49.3861 4.78327C49.5614 4.80987 49.7366 4.8366 49.9117 4.86341C50.092 4.89098 50.2723 4.91833 50.4527 4.94556C50.6081 4.96904 50.7635 4.99268 50.9189 5.01644C51.0114 5.0306 51.104 5.04469 51.1966 5.05862C51.2835 5.07171 51.3705 5.085 51.4574 5.09844C51.5042 5.10563 51.5511 5.11263 51.598 5.11962C51.9825 5.1796 51.9825 5.1796 52.0885 5.30292C52.1534 5.39548 52.1649 5.44105 52.1676 5.5534C52.1684 5.57745 52.1693 5.6015 52.1702 5.62628C52.145 5.81257 51.9761 5.93559 51.8482 6.06024C51.8092 6.09845 51.7702 6.13672 51.7313 6.17505C51.7141 6.19183 51.6969 6.20861 51.6792 6.22589C51.6321 6.27457 51.5877 6.32395 51.5435 6.37519C51.4589 6.47256 51.3694 6.56367 51.2777 6.65423C51.2528 6.67892 51.2528 6.67892 51.2275 6.70411C51.1576 6.77365 51.0875 6.84305 51.0175 6.91247C50.966 6.96355 50.9145 7.0147 50.8631 7.06586C50.8476 7.08122 50.832 7.09658 50.816 7.11241C50.7417 7.18629 50.6701 7.2612 50.6016 7.34051C50.5187 7.43657 50.4304 7.52604 50.3402 7.61517C50.3153 7.63986 50.3153 7.63986 50.29 7.66504C50.2201 7.73459 50.15 7.80399 50.08 7.87341C50.0285 7.92449 49.977 7.97564 49.9256 8.02679C49.9101 8.04216 49.8945 8.05752 49.8785 8.07335C49.7881 8.16321 49.7029 8.25558 49.6208 8.35311C49.5821 8.3952 49.5821 8.3952 49.5348 8.43324C49.4861 8.47321 49.4524 8.50636 49.418 8.55926C49.4125 8.61831 49.4125 8.61831 49.4218 8.68298C49.4246 8.70804 49.4274 8.7331 49.4303 8.75892C49.4504 8.90605 49.4734 9.05257 49.4979 9.19902C49.5037 9.23412 49.5095 9.26922 49.5153 9.30433C49.5276 9.37934 49.54 9.45434 49.5525 9.52934C49.5722 9.64802 49.5917 9.76673 49.6113 9.88544C49.6597 10.1801 49.7084 10.4747 49.7572 10.7693C49.7951 10.9987 49.833 11.2282 49.8707 11.4577C49.8901 11.5756 49.9096 11.6936 49.9292 11.8115C49.9414 11.8848 49.9535 11.9581 49.9655 12.0315C49.9711 12.0654 49.9767 12.0993 49.9824 12.1332C49.9902 12.1796 49.9978 12.226 50.0053 12.2725C50.0096 12.2984 50.0139 12.3243 50.0183 12.351C50.0388 12.5209 50.0291 12.6364 49.9337 12.778C49.8335 12.8733 49.7423 12.9102 49.6022 12.9071C49.4429 12.8788 49.3003 12.7852 49.1602 12.7077C49.1378 12.6954 49.1154 12.6831 49.0922 12.6704C48.9462 12.59 48.8007 12.509 48.6553 12.4276C48.5007 12.3411 48.3456 12.2556 48.1905 12.1701C48.1621 12.1544 48.1336 12.1387 48.1052 12.1231C48.0194 12.0757 47.9336 12.0284 47.8477 11.9811C47.5218 11.8015 47.1959 11.6219 46.8705 11.4413C46.8303 11.419 46.7901 11.3968 46.7499 11.3745C46.6414 11.3144 46.5332 11.254 46.4269 11.1901C46.404 11.1764 46.404 11.1764 46.3806 11.1625C46.3429 11.1398 46.3055 11.1166 46.2681 11.0934C46.1932 11.0611 46.1677 11.0688 46.0899 11.0905C46.0439 11.1118 45.9985 11.1349 45.9539 11.159C45.9274 11.1732 45.901 11.1874 45.8737 11.2021C45.8452 11.2176 45.8167 11.2332 45.7882 11.2487C45.7586 11.2647 45.7289 11.2807 45.6993 11.2967C45.4957 11.407 45.2937 11.5201 45.0926 11.6348C44.934 11.7251 44.7741 11.8126 44.6134 11.8991C44.4285 11.9986 44.245 12.1 44.0626 12.2038C43.8534 12.3228 43.6425 12.4385 43.4306 12.5525C43.2747 12.6365 43.1199 12.722 42.9664 12.8102C42.8323 12.8868 42.7275 12.9133 42.5743 12.8952C42.4495 12.8526 42.3795 12.7748 42.3165 12.6608C42.2434 12.4416 42.3356 12.1472 42.3729 11.9243C42.3787 11.8891 42.3845 11.854 42.3903 11.8189C42.4026 11.7438 42.415 11.6688 42.4275 11.5938C42.4472 11.4751 42.4667 11.3564 42.4863 11.2377C42.5241 11.0074 42.5622 10.7771 42.6003 10.5468C42.6489 10.253 42.6974 9.95926 42.7457 9.66546C42.7651 9.54751 42.7846 9.42957 42.8042 9.31165C42.8164 9.23837 42.8285 9.16507 42.8405 9.09177C42.8461 9.05785 42.8517 9.02393 42.8574 8.99002C42.8651 8.94366 42.8727 8.89727 42.8803 8.85089C42.8868 8.81201 42.8868 8.81201 42.8933 8.77234C42.9025 8.69951 42.9079 8.63252 42.9024 8.55926C42.8601 8.5071 42.8214 8.46592 42.772 8.42157C42.7475 8.39875 42.7231 8.37586 42.6987 8.3529C42.6807 8.33599 42.6807 8.33599 42.6624 8.31874C42.621 8.2778 42.5833 8.23519 42.5455 8.19089C42.4603 8.09279 42.3701 8.00089 42.2777 7.90961C42.2611 7.89315 42.2446 7.87669 42.2275 7.85974C42.1752 7.8077 42.1228 7.75574 42.0704 7.7038C42.0012 7.63526 41.9321 7.56665 41.8631 7.49798C41.8476 7.48262 41.832 7.46726 41.816 7.45143C41.7269 7.36279 41.6431 7.2713 41.5609 7.17617C41.4907 7.09699 41.4155 7.02301 41.3402 6.94867C41.3236 6.93221 41.3071 6.91575 41.29 6.8988C41.2377 6.84676 41.1853 6.7948 41.1329 6.74286C41.0637 6.67432 40.9946 6.60571 40.9256 6.53705C40.9101 6.52169 40.8945 6.50632 40.8785 6.4905C40.7877 6.40019 40.702 6.30703 40.6183 6.2101C40.5761 6.16176 40.5318 6.11631 40.4857 6.07159C40.4614 6.04776 40.4614 6.04776 40.4367 6.02344C40.4033 5.99092 40.3699 5.95846 40.3365 5.92602C40.3205 5.91025 40.3045 5.89448 40.2879 5.87823C40.2735 5.86421 40.2591 5.85018 40.2443 5.83573C40.1491 5.72785 40.1502 5.6261 40.1529 5.48694C40.1658 5.36667 40.2194 5.30845 40.3073 5.23108C40.4294 5.15211 40.5819 5.14667 40.7228 5.12661C40.7554 5.12171 40.788 5.11677 40.8206 5.1118C40.8878 5.10159 40.9551 5.09156 41.0224 5.08169C41.1427 5.06399 41.2628 5.04512 41.3829 5.02626C41.5295 5.00328 41.6762 4.98078 41.8229 4.95822C41.8545 4.95337 41.886 4.94851 41.9175 4.94366C42.065 4.92096 42.2126 4.89828 42.3601 4.87563C42.5287 4.84974 42.6974 4.82377 42.866 4.79772C42.9979 4.77734 43.1299 4.75704 43.2619 4.7368C43.3401 4.7248 43.4183 4.71277 43.4965 4.70065C43.5831 4.68726 43.6696 4.67401 43.7562 4.66078C43.7817 4.6568 43.8073 4.65282 43.8336 4.64872C43.946 4.63167 44.0539 4.61655 44.168 4.62176C44.1721 4.60883 44.1761 4.5959 44.1802 4.58257C44.2213 4.45437 44.2708 4.3342 44.3295 4.21316C44.3382 4.19482 44.347 4.17648 44.356 4.15758C44.3748 4.1183 44.3936 4.07905 44.4125 4.03982C44.4425 3.97757 44.4723 3.91526 44.5021 3.85293C44.5328 3.78882 44.5634 3.72471 44.5941 3.66062C44.6902 3.45991 44.7853 3.25871 44.88 3.05731C44.8877 3.04094 44.8954 3.02456 44.9033 3.00769C45.0061 2.78919 45.1081 2.57035 45.2095 2.35126C45.2607 2.24087 45.312 2.13051 45.3634 2.0202C45.3754 1.99436 45.3754 1.99436 45.3877 1.968C45.4408 1.85383 45.4942 1.73975 45.5477 1.62575C45.5652 1.58839 45.5827 1.55101 45.6001 1.51361C45.8433 0.991966 45.8433 0.991966 45.9727 0.918639C46.1001 0.876169 46.2301 0.878562 46.3565 0.923034Z" fill="#FFC106"/>
</g>
<g clip-path="url(#clip4_1_410)">
<mask id="path-5-inside-1_1_410" fill="white">
<path d="M59.6898 0.923034C59.8073 1.00418 59.8646 1.11363 59.9255 1.24026C59.9329 1.25547 59.9402 1.27067 59.9478 1.28634C59.9718 1.33606 59.9956 1.38589 60.0194 1.43573C60.0362 1.4708 60.0531 1.50587 60.07 1.54094C60.1844 1.77936 60.2966 2.01879 60.4074 2.25893C60.5116 2.48469 60.6176 2.70954 60.724 2.93426C60.8576 3.21653 60.9901 3.49924 61.121 3.78277C61.181 3.91243 61.2417 4.04164 61.3039 4.17023C61.316 4.19525 61.3281 4.22027 61.3406 4.24605C61.3635 4.29311 61.3864 4.34012 61.4095 4.38705C61.4246 4.41808 61.4246 4.41808 61.44 4.44974C61.4533 4.47679 61.4533 4.47679 61.4668 4.5044C61.4857 4.55145 61.4857 4.55145 61.4857 4.62176C61.5127 4.62345 61.5127 4.62345 61.5403 4.62517C61.7393 4.63886 61.9348 4.66386 62.1318 4.69408C62.1648 4.69906 62.1978 4.70403 62.2308 4.70899C62.3194 4.72234 62.408 4.73584 62.4966 4.74938C62.5708 4.76072 62.6451 4.77199 62.7194 4.78327C62.8946 4.80987 63.0698 4.8366 63.245 4.86341C63.4253 4.89098 63.6056 4.91833 63.7859 4.94556C63.9413 4.96904 64.0967 4.99268 64.2521 5.01644C64.3447 5.0306 64.4372 5.04468 64.5298 5.05862C64.6168 5.07171 64.7037 5.085 64.7906 5.09844C64.8375 5.10563 64.8844 5.11263 64.9312 5.11962C65.3157 5.1796 65.3157 5.1796 65.4217 5.30292C65.4867 5.39548 65.4982 5.44105 65.5008 5.5534C65.5017 5.57745 65.5026 5.6015 65.5035 5.62628C65.4782 5.81257 65.3094 5.93559 65.1815 6.06024C65.1424 6.09845 65.1035 6.13672 65.0646 6.17505C65.0474 6.19183 65.0302 6.20861 65.0124 6.22589C64.9653 6.27457 64.9209 6.32395 64.8767 6.37519C64.7922 6.47256 64.7026 6.56367 64.6109 6.65423C64.5861 6.67892 64.5861 6.67892 64.5608 6.70411C64.4909 6.77365 64.4208 6.84305 64.3507 6.91247C64.2992 6.96355 64.2478 7.0147 64.1964 7.06586C64.1808 7.08122 64.1653 7.09658 64.1492 7.11241C64.075 7.18629 64.0034 7.2612 63.9349 7.34051C63.852 7.43657 63.7637 7.52604 63.6734 7.61517C63.6486 7.63986 63.6486 7.63986 63.6233 7.66504C63.5534 7.73459 63.4833 7.80399 63.4132 7.87341C63.3617 7.92449 63.3103 7.97564 63.2589 8.02679C63.2433 8.04216 63.2278 8.05752 63.2117 8.07335C63.1214 8.16321 63.0361 8.25558 62.9541 8.35311C62.9154 8.3952 62.9154 8.3952 62.8681 8.43324C62.8194 8.47321 62.7857 8.50636 62.7513 8.55926C62.7458 8.61831 62.7458 8.61831 62.7551 8.68298C62.7579 8.70804 62.7607 8.7331 62.7636 8.75892C62.7837 8.90605 62.8067 9.05257 62.8312 9.19902C62.837 9.23412 62.8427 9.26922 62.8485 9.30433C62.8609 9.37934 62.8733 9.45434 62.8857 9.52934C62.9054 9.64802 62.925 9.76673 62.9445 9.88544C62.993 10.1801 63.0417 10.4747 63.0904 10.7693C63.1284 10.9987 63.1663 11.2282 63.204 11.4577C63.2234 11.5756 63.2429 11.6936 63.2625 11.8115C63.2747 11.8848 63.2867 11.9581 63.2988 12.0315C63.3043 12.0654 63.31 12.0993 63.3157 12.1332C63.3234 12.1796 63.331 12.226 63.3386 12.2725C63.3429 12.2984 63.3472 12.3243 63.3516 12.351C63.3721 12.5209 63.3623 12.6364 63.2669 12.778C63.1667 12.8733 63.0756 12.9102 62.9354 12.9071C62.7761 12.8788 62.6335 12.7852 62.4935 12.7077C62.471 12.6954 62.4486 12.6831 62.4255 12.6704C62.2795 12.59 62.1339 12.509 61.9885 12.4276C61.834 12.3411 61.6789 12.2556 61.5238 12.1701C61.4953 12.1544 61.4669 12.1387 61.4384 12.1231C61.3526 12.0757 61.2668 12.0284 61.181 11.9811C60.8551 11.8015 60.5292 11.6219 60.2038 11.4413C60.1636 11.419 60.1233 11.3968 60.0831 11.3745C59.9746 11.3144 59.8665 11.254 59.7602 11.1901C59.7372 11.1764 59.7372 11.1764 59.7138 11.1625C59.6762 11.1398 59.6387 11.1166 59.6013 11.0934C59.5264 11.0611 59.5009 11.0688 59.4232 11.0905C59.3771 11.1118 59.3318 11.1349 59.2871 11.159C59.2607 11.1732 59.2342 11.1874 59.2069 11.2021C59.1784 11.2176 59.1499 11.2332 59.1214 11.2487C59.0918 11.2647 59.0622 11.2807 59.0326 11.2967C58.829 11.407 58.627 11.5201 58.4258 11.6348C58.2672 11.7251 58.1073 11.8126 57.9466 11.8991C57.7618 11.9986 57.5783 12.1 57.3958 12.2038C57.1866 12.3228 56.9758 12.4385 56.7638 12.5525C56.608 12.6365 56.4532 12.722 56.2997 12.8102C56.1655 12.8868 56.0607 12.9133 55.9075 12.8952C55.7828 12.8526 55.7128 12.7748 55.6497 12.6608C55.5766 12.4416 55.6688 12.1472 55.7062 11.9243C55.712 11.8891 55.7177 11.854 55.7235 11.8189C55.7358 11.7438 55.7483 11.6688 55.7607 11.5938C55.7805 11.4751 55.8 11.3564 55.8195 11.2377C55.8574 11.0074 55.8955 10.7771 55.9336 10.5468C55.9821 10.253 56.0307 9.95926 56.079 9.66546C56.0984 9.54751 56.1179 9.42957 56.1375 9.31165C56.1497 9.23837 56.1617 9.16507 56.1738 9.09177C56.1793 9.05785 56.185 9.02393 56.1907 8.99002C56.1984 8.94366 56.206 8.89727 56.2136 8.85089C56.22 8.81201 56.22 8.81201 56.2266 8.77234C56.2357 8.69951 56.2411 8.63252 56.2357 8.55926C56.1933 8.5071 56.1546 8.46592 56.1053 8.42157C56.0808 8.39875 56.0563 8.37586 56.032 8.3529C56.014 8.33599 56.014 8.33599 55.9956 8.31874C55.9542 8.2778 55.9165 8.23519 55.8788 8.19089C55.7935 8.09279 55.7034 8.00089 55.6109 7.90961C55.5944 7.89315 55.5778 7.87669 55.5608 7.85974C55.5085 7.8077 55.4561 7.75574 55.4036 7.7038C55.3345 7.63526 55.2654 7.56665 55.1964 7.49798C55.1808 7.48262 55.1653 7.46726 55.1492 7.45143C55.0601 7.36279 54.9763 7.2713 54.8942 7.17617C54.824 7.09699 54.7487 7.02301 54.6734 6.94867C54.6569 6.93221 54.6403 6.91575 54.6233 6.8988C54.571 6.84676 54.5186 6.7948 54.4661 6.74286C54.397 6.67432 54.3279 6.60571 54.2589 6.53705C54.2433 6.52169 54.2278 6.50632 54.2117 6.4905C54.121 6.40019 54.0352 6.30703 53.9516 6.2101C53.9093 6.16176 53.865 6.11631 53.819 6.07159C53.7947 6.04776 53.7947 6.04776 53.7699 6.02344C53.7366 5.99092 53.7032 5.95846 53.6698 5.92602C53.6537 5.91025 53.6377 5.89448 53.6212 5.87823C53.6068 5.86421 53.5924 5.85018 53.5775 5.83573C53.4823 5.72785 53.4835 5.6261 53.4862 5.48694C53.4991 5.36667 53.5527 5.30845 53.6405 5.23108C53.7627 5.15211 53.9151 5.14667 54.0561 5.12661C54.0887 5.12171 54.1212 5.11677 54.1538 5.1118C54.2211 5.10159 54.2883 5.09156 54.3556 5.08169C54.4759 5.06399 54.596 5.04512 54.7162 5.02626C54.8628 5.00328 55.0095 4.98078 55.1562 4.95822C55.1877 4.95337 55.2192 4.94851 55.2508 4.94366C55.3983 4.92096 55.5458 4.89828 55.6933 4.87563C55.862 4.84974 56.0306 4.82377 56.1992 4.79772C56.3312 4.77734 56.4631 4.75704 56.5951 4.7368C56.6733 4.7248 56.7516 4.71277 56.8298 4.70065C56.9163 4.68726 57.0029 4.67401 57.0895 4.66078C57.115 4.6568 57.1405 4.65282 57.1668 4.64872C57.2793 4.63167 57.3871 4.61655 57.5013 4.62176C57.5053 4.60883 57.5093 4.5959 57.5135 4.58257C57.5546 4.45437 57.604 4.3342 57.6627 4.21316C57.6715 4.19482 57.6802 4.17648 57.6893 4.15758C57.7081 4.1183 57.7269 4.07905 57.7458 4.03982C57.7758 3.97757 57.8056 3.91526 57.8354 3.85293C57.866 3.78882 57.8967 3.72471 57.9274 3.66062C58.0235 3.45991 58.1185 3.25871 58.2132 3.05731C58.2209 3.04094 58.2286 3.02456 58.2366 3.00769C58.3393 2.78919 58.4413 2.57035 58.5428 2.35126C58.594 2.24087 58.6453 2.13051 58.6966 2.0202C58.7086 1.99436 58.7086 1.99436 58.7209 1.968C58.7741 1.85383 58.8274 1.73975 58.881 1.62575C58.8985 1.58839 58.9159 1.55101 58.9334 1.51361C59.1766 0.991966 59.1766 0.991966 59.306 0.918639C59.4334 0.876169 59.5634 0.878562 59.6898 0.923034Z"/>
</mask>
<path d="M59.6898 0.923034L59.9739 0.511585L59.9188 0.473579L59.8557 0.451378L59.6898 0.923034ZM59.9255 1.24026L59.4749 1.45698L59.4754 1.45804L59.9255 1.24026ZM59.9478 1.28634L60.3981 1.06897L60.3979 1.06856L59.9478 1.28634ZM60.0194 1.43573L59.5681 1.65095L59.5687 1.6523L60.0194 1.43573ZM60.07 1.54094L60.5207 1.32454L60.5205 1.32417L60.07 1.54094ZM60.4074 2.25893L59.9534 2.4684L59.9534 2.46842L60.4074 2.25893ZM60.724 2.93426L61.1759 2.72036L61.1759 2.72033L60.724 2.93426ZM61.121 3.78277L60.667 3.99234L60.6672 3.9927L61.121 3.78277ZM61.3039 4.17023L61.754 3.95249L61.754 3.95234L61.3039 4.17023ZM61.3406 4.24605L60.8905 4.46378L60.8908 4.4644L61.3406 4.24605ZM61.4095 4.38705L61.8593 4.16856L61.8581 4.16622L61.4095 4.38705ZM61.44 4.44974L60.9902 4.66822L60.9912 4.6702L61.44 4.44974ZM61.4668 4.5044L61.931 4.31862L61.924 4.30098L61.9156 4.28394L61.4668 4.5044ZM61.4857 4.62176H60.9857C60.9857 4.88582 61.191 5.10436 61.4545 5.12079L61.4857 4.62176ZM61.5403 4.62517L61.5747 4.12634L61.5714 4.12614L61.5403 4.62517ZM62.1318 4.69408L62.056 5.1883L62.0572 5.18848L62.1318 4.69408ZM62.2308 4.70899L62.3053 4.21457L62.3051 4.21455L62.2308 4.70899ZM62.4966 4.74938L62.4211 5.24365L62.4211 5.24366L62.4966 4.74938ZM62.7194 4.78327L62.7944 4.28893L62.7944 4.28893L62.7194 4.78327ZM63.245 4.86341L63.1694 5.35766L63.1694 5.35766L63.245 4.86341ZM63.7859 4.94556L63.8606 4.45117L63.8606 4.45117L63.7859 4.94556ZM64.2521 5.01644L64.1765 5.5107L64.1765 5.5107L64.2521 5.01644ZM64.5298 5.05862L64.6042 4.56419L64.6042 4.56418L64.5298 5.05862ZM64.7906 5.09844L64.7142 5.59257L64.7147 5.59265L64.7906 5.09844ZM64.9312 5.11962L65.0083 4.62558L65.0049 4.62508L64.9312 5.11962ZM65.4217 5.30292L65.8309 5.0156L65.8169 4.99559L65.8009 4.97705L65.4217 5.30292ZM65.5008 5.5534L65.0009 5.56522L65.0011 5.57161L65.5008 5.5534ZM65.5035 5.62628L65.9989 5.69345L66.0047 5.65094L66.0031 5.60808L65.5035 5.62628ZM65.1815 6.06024L64.8325 5.70219L64.8317 5.70296L65.1815 6.06024ZM65.0646 6.17505L65.4137 6.53296L65.4154 6.53126L65.0646 6.17505ZM65.0124 6.22589L64.6633 5.86799L64.6582 5.87299L64.6532 5.87813L65.0124 6.22589ZM64.8767 6.37519L65.2543 6.70297L65.2553 6.70186L64.8767 6.37519ZM64.6109 6.65423L64.2596 6.29846L64.2583 6.29973L64.6109 6.65423ZM64.5608 6.70411L64.9134 7.05862L64.9134 7.05861L64.5608 6.70411ZM64.3507 6.91247L63.9988 6.55731L63.9987 6.55745L64.3507 6.91247ZM64.1964 7.06586L64.5477 7.42163L64.549 7.42036L64.1964 7.06586ZM64.1492 7.11241L63.7979 6.75663L63.7966 6.75794L64.1492 7.11241ZM63.9349 7.34051L63.5564 7.01379L63.9349 7.34051ZM63.6734 7.61517L63.3221 7.2594L63.3208 7.26067L63.6734 7.61517ZM63.6233 7.66504L63.9759 8.01956L63.9759 8.01955L63.6233 7.66504ZM63.4132 7.87341L63.0613 7.51825L63.0612 7.51839L63.4132 7.87341ZM63.2589 8.02679L63.6102 8.38257L63.6115 8.3813L63.2589 8.02679ZM63.2117 8.07335L62.8604 7.71757L62.8591 7.71887L63.2117 8.07335ZM62.9541 8.35311L63.322 8.69168L63.3296 8.68347L63.3367 8.67494L62.9541 8.35311ZM62.8681 8.43324L62.5546 8.0437L62.551 8.04668L62.8681 8.43324ZM62.7513 8.55926L62.332 8.28693L62.2649 8.39014L62.2535 8.51267L62.7513 8.55926ZM62.7551 8.68298L63.252 8.62742L63.2511 8.61951L63.25 8.61164L62.7551 8.68298ZM62.7636 8.75892L62.2665 8.8145L62.2682 8.82662L62.7636 8.75892ZM62.8312 9.19902L63.3245 9.1177L63.3243 9.11653L62.8312 9.19902ZM62.8485 9.30433L62.3551 9.38538L62.3551 9.3855L62.8485 9.30433ZM62.8857 9.52934L63.379 9.44738L63.379 9.44737L62.8857 9.52934ZM62.9445 9.88544L62.4511 9.96656L62.4511 9.96661L62.9445 9.88544ZM63.0904 10.7693L63.5837 10.6877L63.5837 10.6877L63.0904 10.7693ZM63.204 11.4577L62.7106 11.5388L62.7106 11.5388L63.204 11.4577ZM63.2625 11.8115L63.7558 11.7296L63.7557 11.7294L63.2625 11.8115ZM63.2988 12.0315L62.8053 12.1124L62.8054 12.1127L63.2988 12.0315ZM63.3157 12.1332L63.8088 12.0507L63.8088 12.0506L63.3157 12.1332ZM63.3386 12.2725L62.8451 12.353L62.8453 12.3541L63.3386 12.2725ZM63.3516 12.351L63.848 12.2912L63.8467 12.2803L63.8449 12.2694L63.3516 12.351ZM63.2669 12.778L63.6115 13.1403L63.6511 13.1027L63.6816 13.0574L63.2669 12.778ZM62.9354 12.9071L62.8479 13.3994L62.8858 13.4061L62.9243 13.407L62.9354 12.9071ZM62.4935 12.7077L62.7355 12.2702L62.7342 12.2695L62.4935 12.7077ZM62.4255 12.6704L62.1845 13.1085L62.1848 13.1086L62.4255 12.6704ZM61.9885 12.4276L62.2328 11.9913L62.2326 11.9912L61.9885 12.4276ZM61.5238 12.1701L61.2823 12.608L61.2825 12.608L61.5238 12.1701ZM61.4384 12.1231L61.6799 11.6852L61.6799 11.6852L61.4384 12.1231ZM61.181 11.9811L60.9396 12.419L61.181 11.9811ZM60.2038 11.4413L60.4464 11.0041L60.4463 11.004L60.2038 11.4413ZM60.0831 11.3745L59.8407 11.8118L59.8411 11.8121L60.0831 11.3745ZM59.7602 11.1901L60.0178 10.7616L60.0164 10.7608L59.7602 11.1901ZM59.7138 11.1625L59.4559 11.5908L59.4576 11.5918L59.7138 11.1625ZM59.6013 11.0934L59.8649 10.6685L59.8336 10.6491L59.7998 10.6345L59.6013 11.0934ZM59.4232 11.0905L59.2889 10.6089L59.2498 10.6198L59.2131 10.6368L59.4232 11.0905ZM59.2871 11.159L59.5238 11.5994L59.5248 11.5989L59.2871 11.159ZM59.2069 11.2021L58.9703 10.7616L58.9677 10.763L59.2069 11.2021ZM59.1214 11.2487L59.3593 11.6885L59.3609 11.6877L59.1214 11.2487ZM59.0326 11.2967L58.795 10.8568L58.7945 10.8571L59.0326 11.2967ZM58.4258 11.6348L58.6731 12.0694L58.6734 12.0692L58.4258 11.6348ZM57.9466 11.8991L57.7097 11.4588L57.7097 11.4588L57.9466 11.8991ZM57.3958 12.2038L57.6431 12.6384L57.6431 12.6384L57.3958 12.2038ZM56.7638 12.5525L56.5268 12.1123L56.5266 12.1124L56.7638 12.5525ZM56.2997 12.8102L56.5475 13.2445L56.5487 13.2438L56.2997 12.8102ZM55.9075 12.8952L55.7461 13.3684L55.7963 13.3855L55.8489 13.3917L55.9075 12.8952ZM55.6497 12.6608L55.1754 12.8189L55.1899 12.8626L55.2122 12.9029L55.6497 12.6608ZM55.7062 11.9243L56.1993 12.0069L56.1995 12.0055L55.7062 11.9243ZM55.7235 11.8189L55.2301 11.7378L55.2301 11.7379L55.7235 11.8189ZM55.7607 11.5938L56.254 11.6758L56.254 11.6758L55.7607 11.5938ZM55.8195 11.2377L55.3261 11.1566L55.3261 11.1566L55.8195 11.2377ZM55.9336 10.5468L56.4269 10.6284L56.4269 10.6284L55.9336 10.5468ZM56.079 9.66546L55.5856 9.58432L55.5856 9.58435L56.079 9.66546ZM56.1375 9.31165L56.6307 9.39363L56.6308 9.39348L56.1375 9.31165ZM56.1738 9.09177L55.6804 9.01046L55.6804 9.01074L56.1738 9.09177ZM56.1907 8.99002L56.6838 9.0725L56.6838 9.07245L56.1907 8.99002ZM56.2136 8.85089L55.7203 8.76923L55.7201 8.77015L56.2136 8.85089ZM56.2266 8.77234L56.7199 8.854L56.7215 8.84431L56.7227 8.83455L56.2266 8.77234ZM56.2357 8.55926L56.7343 8.52204L56.7226 8.36575L56.6238 8.24408L56.2357 8.55926ZM56.1053 8.42157L55.7645 8.78758L55.7711 8.79346L56.1053 8.42157ZM56.032 8.3529L56.3747 7.98888L56.3744 7.9886L56.032 8.3529ZM55.9956 8.31874L55.644 8.67445L55.6532 8.68304L55.9956 8.31874ZM55.8788 8.19089L56.2592 7.86643L56.2562 7.86294L55.8788 8.19089ZM55.6109 7.90961L55.2583 8.26411L55.2596 8.26538L55.6109 7.90961ZM55.5608 7.85974L55.9134 7.50523L55.9134 7.50522L55.5608 7.85974ZM55.4036 7.7038L55.7556 7.34863L55.4036 7.7038ZM55.1964 7.49798L55.549 7.14348L55.5477 7.14221L55.1964 7.49798ZM55.1492 7.45143L54.7966 7.80591L54.7979 7.8072L55.1492 7.45143ZM54.8942 7.17617L55.2727 6.84942L55.2683 6.84441L54.8942 7.17617ZM54.6734 6.94867L54.3208 7.30317L54.3221 7.30444L54.6734 6.94867ZM54.6233 6.8988L54.9759 6.5443L54.9759 6.54429L54.6233 6.8988ZM54.4661 6.74286L54.8181 6.38769L54.4661 6.74286ZM54.2589 6.53705L54.6115 6.18254L54.6102 6.18128L54.2589 6.53705ZM54.2117 6.4905L53.8591 6.84497L53.8604 6.84627L54.2117 6.4905ZM53.9516 6.2101L54.3302 5.88343L54.328 5.88103L53.9516 6.2101ZM53.819 6.07159L53.4686 6.4283L53.4706 6.4303L53.819 6.07159ZM53.7699 6.02344L54.1203 5.66673L54.119 5.66543L53.7699 6.02344ZM53.6698 5.92602L53.3191 6.28243L53.3216 6.28488L53.6698 5.92602ZM53.6212 5.87823L53.9719 5.52183L53.9698 5.51981L53.6212 5.87823ZM53.5775 5.83573L53.2026 6.16655L53.2152 6.18086L53.2289 6.19415L53.5775 5.83573ZM53.4862 5.48694L52.989 5.43362L52.9867 5.45536L52.9863 5.47721L53.4862 5.48694ZM53.6405 5.23108L53.3691 4.81118L53.3379 4.83134L53.31 4.85589L53.6405 5.23108ZM54.0561 5.12661L54.1265 5.62164L54.1305 5.62105L54.0561 5.12661ZM54.1538 5.1118L54.0787 4.61747L54.0784 4.61752L54.1538 5.1118ZM54.3556 5.08169L54.4282 5.5764L54.4284 5.57637L54.3556 5.08169ZM54.7162 5.02626L54.6387 4.53229L54.6386 4.53231L54.7162 5.02626ZM55.1562 4.95822L55.2322 5.45241L55.2322 5.4524L55.1562 4.95822ZM55.2508 4.94366L55.1747 4.44948L55.1747 4.44948L55.2508 4.94366ZM55.6933 4.87563L55.7692 5.36984L55.7692 5.36984L55.6933 4.87563ZM56.1992 4.79772L56.1229 4.30357L56.1229 4.30358L56.1992 4.79772ZM56.5951 4.7368L56.6709 5.23102L56.6709 5.23102L56.5951 4.7368ZM56.8298 4.70065L56.7533 4.20653L56.7532 4.20655L56.8298 4.70065ZM57.0895 4.66078L57.165 5.15505L57.1665 5.15482L57.0895 4.66078ZM57.1668 4.64872L57.0919 4.15437L57.0898 4.15469L57.1668 4.64872ZM57.5013 4.62176L57.4785 5.12124L57.8642 5.13887L57.9788 4.77013L57.5013 4.62176ZM57.5135 4.58257L57.0373 4.42994L57.036 4.43421L57.5135 4.58257ZM57.6627 4.21316L58.1126 4.43129L58.1138 4.42874L57.6627 4.21316ZM57.6893 4.15758L57.2382 3.94184L57.2381 3.942L57.6893 4.15758ZM57.7458 4.03982L58.1963 4.25678L58.1963 4.25677L57.7458 4.03982ZM57.8354 3.85293L57.3843 3.63732L57.3843 3.63733L57.8354 3.85293ZM57.9274 3.66062L58.3783 3.87659L58.3783 3.87657L57.9274 3.66062ZM58.2132 3.05731L57.7608 2.84448L57.7607 2.84461L58.2132 3.05731ZM58.2366 3.00769L58.689 3.22052L58.689 3.2205L58.2366 3.00769ZM58.5428 2.35126L58.0892 2.1409L58.0891 2.14112L58.5428 2.35126ZM58.6966 2.0202L59.1499 2.23122V2.23122L58.6966 2.0202ZM58.7209 1.968L58.2677 1.75687L58.2676 1.75698L58.7209 1.968ZM58.881 1.62575L59.3336 1.83821L59.3337 1.83799L58.881 1.62575ZM58.9334 1.51361L58.4802 1.30232L58.4802 1.3024L58.9334 1.51361ZM59.306 0.918639L59.1479 0.444298L59.1018 0.459667L59.0595 0.483628L59.306 0.918639ZM59.6898 0.923034L59.4057 1.33448C59.4058 1.33455 59.4082 1.33528 59.4167 1.34768C59.4293 1.36603 59.4445 1.3937 59.4749 1.45698L59.9255 1.24026L60.3761 1.02355C60.3153 0.897165 60.2107 0.675135 59.9739 0.511585L59.6898 0.923034ZM59.9255 1.24026L59.4754 1.45804C59.4828 1.47325 59.4902 1.48845 59.4977 1.50412L59.9478 1.28634L60.3979 1.06856C60.3903 1.05289 60.383 1.03769 60.3756 1.02248L59.9255 1.24026ZM59.9478 1.28634L59.4975 1.5037C59.521 1.55222 59.5443 1.60104 59.5681 1.65095L60.0194 1.43573L60.4707 1.22051C60.4469 1.17074 60.4227 1.11991 60.3981 1.06897L59.9478 1.28634ZM60.0194 1.43573L59.5687 1.6523C59.5856 1.68744 59.6025 1.72258 59.6194 1.75771L60.07 1.54094L60.5205 1.32417C60.5037 1.28917 60.4869 1.25417 60.47 1.21916L60.0194 1.43573ZM60.07 1.54094L59.6192 1.75734C59.7323 1.99296 59.8434 2.23003 59.9534 2.4684L60.4074 2.25893L60.8614 2.04946C60.7498 1.80756 60.6365 1.56575 60.5207 1.32454L60.07 1.54094ZM60.4074 2.25893L59.9534 2.46842C60.0586 2.69649 60.1655 2.92315 60.272 3.1482L60.724 2.93426L61.1759 2.72033C61.0696 2.49593 60.9645 2.27289 60.8614 2.04944L60.4074 2.25893ZM60.724 2.93426L60.272 3.14817C60.4051 3.42935 60.537 3.71057 60.667 3.99234L61.121 3.78277L61.5749 3.5732C61.4432 3.2879 61.31 3.00371 61.1759 2.72036L60.724 2.93426ZM61.121 3.78277L60.6672 3.9927C60.728 4.1241 60.79 4.25611 60.8539 4.38811L61.3039 4.17023L61.754 3.95234C61.6934 3.82718 61.634 3.70075 61.5748 3.57284L61.121 3.78277ZM61.3039 4.17023L60.8538 4.38796C60.8659 4.41298 60.878 4.438 60.8905 4.46378L61.3406 4.24605L61.7907 4.02832C61.7783 4.00254 61.7661 3.97752 61.754 3.95249L61.3039 4.17023ZM61.3406 4.24605L60.8908 4.4644C60.914 4.51222 60.9374 4.56006 60.9609 4.60788L61.4095 4.38705L61.8581 4.16622C61.8355 4.12018 61.8129 4.074 61.7904 4.0277L61.3406 4.24605ZM61.4095 4.38705L60.9598 4.60554C60.9749 4.63657 60.9749 4.63657 60.9902 4.66822L61.44 4.44974L61.8897 4.23125C61.8743 4.1996 61.8743 4.1996 61.8593 4.16857L61.4095 4.38705ZM61.44 4.44974L60.9912 4.6702C61.0045 4.69726 61.0045 4.69726 61.0181 4.72486L61.4668 4.5044L61.9156 4.28394C61.9021 4.25633 61.9021 4.25633 61.8888 4.22927L61.44 4.44974ZM61.4668 4.5044L61.0026 4.69018C61.0053 4.69673 61.0063 4.69931 61.007 4.70108C61.0076 4.70263 61.0065 4.69994 61.0048 4.69502C61.003 4.68966 61.0001 4.68087 60.9972 4.66959C60.9942 4.65794 60.9916 4.64584 60.9896 4.63357C60.9877 4.62161 60.9867 4.61173 60.9862 4.60487C60.9857 4.59837 60.9856 4.5943 60.9856 4.59422C60.9856 4.5942 60.9856 4.59598 60.9856 4.60116C60.9857 4.60636 60.9857 4.61259 60.9857 4.62176H61.4857H61.9857C61.9857 4.60693 61.9857 4.58569 61.9852 4.56654C61.9846 4.54588 61.9831 4.51331 61.977 4.47515C61.9641 4.39475 61.9349 4.32835 61.931 4.31862L61.4668 4.5044ZM61.4857 4.62176L61.4545 5.12079C61.4681 5.12164 61.4748 5.12206 61.4817 5.12249C61.4885 5.12291 61.4954 5.12334 61.5092 5.1242L61.5403 4.62517L61.5714 4.12614C61.5576 4.12528 61.5507 4.12485 61.5439 4.12443C61.5371 4.124 61.5303 4.12358 61.5168 4.12273L61.4857 4.62176ZM61.5403 4.62517L61.506 5.12399C61.6861 5.13639 61.8667 5.15927 62.056 5.1883L62.1318 4.69408L62.2076 4.19986C62.0028 4.16846 61.7924 4.14134 61.5747 4.12635L61.5403 4.62517ZM62.1318 4.69408L62.0572 5.18848C62.0903 5.19347 62.1233 5.19846 62.1564 5.20343L62.2308 4.70899L62.3051 4.21455C62.2722 4.2096 62.2393 4.20464 62.2064 4.19968L62.1318 4.69408ZM62.2308 4.70899L62.1562 5.2034C62.2444 5.21669 62.3326 5.23012 62.4211 5.24365L62.4966 4.74938L62.5721 4.25512C62.4834 4.24156 62.3944 4.228 62.3053 4.21457L62.2308 4.70899ZM62.4966 4.74938L62.4211 5.24366C62.4956 5.25503 62.5701 5.26634 62.6443 5.2776L62.7194 4.78327L62.7944 4.28893C62.7201 4.27765 62.6461 4.26641 62.572 4.25511L62.4966 4.74938ZM62.7194 4.78327L62.6443 5.2776C62.8193 5.30417 62.9943 5.33087 63.1694 5.35766L63.245 4.86341L63.3206 4.36916C63.1453 4.34233 62.9699 4.31557 62.7944 4.28893L62.7194 4.78327ZM63.245 4.86341L63.1694 5.35766C63.3501 5.3853 63.5307 5.41269 63.7113 5.43995L63.7859 4.94556L63.8606 4.45117C63.6804 4.42396 63.5005 4.39667 63.3206 4.36916L63.245 4.86341ZM63.7859 4.94556L63.7112 5.43995C63.8663 5.46338 64.0214 5.48697 64.1765 5.5107L64.2521 5.01644L64.3277 4.52219C64.1721 4.49839 64.0164 4.4747 63.8606 4.45117L63.7859 4.94556ZM64.2521 5.01644L64.1765 5.5107C64.2693 5.52488 64.3623 5.53904 64.4554 5.55305L64.5298 5.05862L64.6042 4.56418C64.5122 4.55033 64.42 4.53631 64.3277 4.52219L64.2521 5.01644ZM64.5298 5.05862L64.4554 5.55305C64.5416 5.56603 64.6279 5.57921 64.7142 5.59257L64.7906 5.09844L64.867 4.60431C64.7796 4.59079 64.692 4.57739 64.6042 4.56419L64.5298 5.05862ZM64.7906 5.09844L64.7147 5.59265C64.7628 5.60003 64.8108 5.60718 64.8575 5.61415L64.9312 5.11962L65.0049 4.62508C64.958 4.61808 64.9121 4.61124 64.8665 4.60423L64.7906 5.09844ZM64.9312 5.11962L64.8542 5.61364C64.9533 5.62911 65.0169 5.63908 65.0638 5.64779C65.1129 5.65693 65.1174 5.66017 65.1059 5.65588C65.0973 5.65267 65.0832 5.6466 65.0663 5.63662C65.0491 5.62644 65.0353 5.6158 65.0254 5.60712C65.0166 5.59951 65.013 5.59512 65.0169 5.59939C65.0216 5.60455 65.0279 5.61179 65.0425 5.62878L65.4217 5.30292L65.8009 4.97705C65.7522 4.92034 65.6516 4.79225 65.456 4.71915C65.3832 4.69194 65.3089 4.67623 65.2466 4.66464C65.182 4.65264 65.1014 4.64011 65.0083 4.62559L64.9312 5.11962ZM65.4217 5.30292L65.0125 5.59023C65.0223 5.60414 65.0233 5.60677 65.0209 5.60235C65.0195 5.59972 65.0171 5.59505 65.0144 5.58863C65.0116 5.58211 65.0089 5.5748 65.0065 5.56699C65.0015 5.55066 65 5.53901 64.9997 5.53674C64.9996 5.53606 64.9998 5.5377 65.0001 5.54264C65.0004 5.54763 65.0007 5.5548 65.0009 5.56522L65.5008 5.5534L66.0007 5.54159C65.9991 5.47618 65.995 5.37986 65.9628 5.27449C65.9292 5.16483 65.8765 5.08049 65.8309 5.0156L65.4217 5.30292ZM65.5008 5.5534L65.0011 5.57161C65.002 5.59566 65.0029 5.61971 65.0038 5.64448L65.5035 5.62628L66.0031 5.60808C66.0022 5.5833 66.0014 5.55925 66.0005 5.5352L65.5008 5.5534ZM65.5035 5.62628L65.008 5.55911C65.0141 5.51412 65.0355 5.50217 65.0058 5.5358C64.9914 5.55215 64.9716 5.5719 64.9408 5.60076C64.9166 5.62337 64.869 5.66661 64.8325 5.70219L65.1815 6.06024L65.5305 6.41829C65.5535 6.39581 65.6806 6.28265 65.7561 6.19695C65.8492 6.09134 65.9676 5.92472 65.9989 5.69345L65.5035 5.62628ZM65.1815 6.06024L64.8317 5.70296C64.7923 5.74152 64.753 5.78014 64.7137 5.81883L65.0646 6.17505L65.4154 6.53126C65.454 6.4933 65.4926 6.45538 65.5313 6.41752L65.1815 6.06024ZM65.0646 6.17505L64.7154 5.81714C64.6982 5.83392 64.681 5.8507 64.6633 5.86799L65.0124 6.22589L65.3616 6.5838C65.3793 6.56651 65.3965 6.54973 65.4137 6.53296L65.0646 6.17505ZM65.0124 6.22589L64.6532 5.87813C64.5976 5.93552 64.5467 5.99235 64.4982 6.04852L64.8767 6.37519L65.2553 6.70186C65.2952 6.65555 65.333 6.61361 65.3717 6.57366L65.0124 6.22589ZM64.8767 6.37519L64.4992 6.04741C64.4274 6.13012 64.3486 6.21055 64.2596 6.29846L64.6109 6.65423L64.9622 7.01001C65.0566 6.91678 65.157 6.81501 65.2543 6.70297L64.8767 6.37519ZM64.6109 6.65423L64.2583 6.29973C64.2335 6.32442 64.2335 6.32442 64.2082 6.3496L64.5608 6.70411L64.9134 7.05861C64.9387 7.03342 64.9387 7.03342 64.9635 7.00874L64.6109 6.65423ZM64.5608 6.70411L64.2082 6.34959C64.1387 6.41874 64.069 6.48777 63.9988 6.55731L64.3507 6.91247L64.7027 7.26763C64.7726 7.19834 64.843 7.12856 64.9134 7.05862L64.5608 6.70411ZM64.3507 6.91247L63.9987 6.55745C63.9469 6.60882 63.8952 6.66022 63.8438 6.71135L64.1964 7.06586L64.549 7.42036C64.6004 7.36918 64.6516 7.31828 64.7028 7.26749L64.3507 6.91247ZM64.1964 7.06586L63.845 6.71009C63.8295 6.72545 63.8139 6.74081 63.7979 6.75664L64.1492 7.11241L64.5005 7.46818C64.5166 7.45235 64.5321 7.43699 64.5477 7.42163L64.1964 7.06586ZM64.1492 7.11241L63.7966 6.75794C63.7166 6.83751 63.6357 6.92197 63.5564 7.01379L63.9349 7.34051L64.3134 7.66724C64.371 7.60043 64.4333 7.53507 64.5019 7.46688L64.1492 7.11241ZM63.9349 7.34051L63.5564 7.01379C63.487 7.09419 63.4103 7.17226 63.3221 7.2594L63.6734 7.61517L64.0247 7.97094C64.117 7.87982 64.2169 7.77896 64.3134 7.66724L63.9349 7.34051ZM63.6734 7.61517L63.3208 7.26067C63.296 7.28536 63.296 7.28536 63.2707 7.31054L63.6233 7.66504L63.9759 8.01955C64.0012 7.99436 64.0012 7.99436 64.026 7.96968L63.6734 7.61517ZM63.6233 7.66504L63.2707 7.31053C63.2012 7.37968 63.1315 7.44871 63.0613 7.51825L63.4132 7.87341L63.7652 8.22857C63.8351 8.15927 63.9055 8.0895 63.9759 8.01956L63.6233 7.66504ZM63.4132 7.87341L63.0612 7.51839C63.0094 7.56976 62.9577 7.62116 62.9063 7.67229L63.2589 8.02679L63.6115 8.3813C63.6629 8.33012 63.7141 8.27921 63.7653 8.22843L63.4132 7.87341ZM63.2589 8.02679L62.9075 7.67102C62.892 7.68639 62.8764 7.70175 62.8604 7.71757L63.2117 8.07335L63.563 8.42912C63.5791 8.41329 63.5946 8.39793 63.6102 8.38256L63.2589 8.02679ZM63.2117 8.07335L62.8591 7.71887C62.7587 7.81874 62.6634 7.92197 62.5714 8.03127L62.9541 8.35311L63.3367 8.67494C63.4089 8.58918 63.4841 8.50768 63.5644 8.42782L63.2117 8.07335ZM62.9541 8.35311L62.5862 8.01454C62.5755 8.02613 62.5713 8.03071 62.5684 8.03373C62.5667 8.03551 62.5691 8.03293 62.5734 8.02888C62.5776 8.02499 62.5799 8.02316 62.5771 8.02553C62.5732 8.02877 62.5675 8.03337 62.5546 8.04372L62.8681 8.43324L63.1816 8.82277C63.1996 8.80825 63.2281 8.78575 63.2551 8.76051C63.2831 8.73448 63.3073 8.7077 63.322 8.69168L62.9541 8.35311ZM62.8681 8.43324L62.551 8.04668C62.4782 8.1064 62.4036 8.17671 62.332 8.28693L62.7513 8.55926L63.1706 8.8316C63.1718 8.82983 63.1718 8.82995 63.1708 8.83126C63.1697 8.83263 63.1685 8.83398 63.1676 8.83493C63.1662 8.83645 63.169 8.83312 63.1852 8.81981L62.8681 8.43324ZM62.7513 8.55926L62.2535 8.51267C62.2517 8.53151 62.2462 8.58106 62.2479 8.63435C62.2487 8.66263 62.2512 8.6868 62.2535 8.70534C62.2555 8.72192 62.2582 8.74018 62.2602 8.75431L62.7551 8.68298L63.25 8.61164C63.2488 8.60325 63.2479 8.59732 63.2472 8.59229C63.2465 8.5873 63.2462 8.58494 63.2461 8.58399C63.2459 8.5825 63.247 8.59085 63.2474 8.60367C63.2476 8.60997 63.2476 8.61567 63.2474 8.62047C63.2473 8.625 63.2471 8.62789 63.2471 8.62823C63.2471 8.62838 63.2472 8.62705 63.2476 8.6229C63.2479 8.61867 63.2484 8.6136 63.2491 8.60585L62.7513 8.55926ZM62.7551 8.68298L62.2582 8.73853C62.261 8.76343 62.2638 8.78883 62.2667 8.81448L62.7636 8.75892L63.2605 8.70337C63.2576 8.67737 63.2548 8.65265 63.252 8.62742L62.7551 8.68298ZM62.7636 8.75892L62.2682 8.82662C62.2892 8.98017 62.313 9.13188 62.338 9.28151L62.8312 9.19902L63.3243 9.11653C63.3004 8.97326 63.2782 8.83192 63.259 8.69123L62.7636 8.75892ZM62.8312 9.19902L62.3378 9.28034C62.3436 9.31535 62.3494 9.35036 62.3551 9.38538L62.8485 9.30433L63.3419 9.22328C63.3361 9.18808 63.3303 9.15289 63.3245 9.1177L62.8312 9.19902ZM62.8485 9.30433L62.3551 9.3855C62.3675 9.46081 62.38 9.53608 62.3925 9.61131L62.8857 9.52934L63.379 9.44737C63.3665 9.37261 63.3542 9.29787 63.3419 9.22316L62.8485 9.30433ZM62.8857 9.52934L62.3925 9.61129C62.4121 9.72952 62.4316 9.84788 62.4511 9.96656L62.9445 9.88544L63.4379 9.80433C63.4184 9.68558 63.3988 9.56651 63.379 9.44738L62.8857 9.52934ZM62.9445 9.88544L62.4511 9.96661C62.4996 10.2615 62.5484 10.5563 62.5971 10.8509L63.0904 10.7693L63.5837 10.6877C63.535 10.3931 63.4863 10.0987 63.4379 9.80428L62.9445 9.88544ZM63.0904 10.7693L62.5971 10.8509C62.6351 11.0803 62.6729 11.3095 62.7106 11.5388L63.204 11.4577L63.6974 11.3766C63.6596 11.1469 63.6217 10.9172 63.5837 10.6877L63.0904 10.7693ZM63.204 11.4577L62.7106 11.5388C62.7301 11.6571 62.7496 11.7753 62.7693 11.8935L63.2625 11.8115L63.7557 11.7294C63.7362 11.6118 63.7167 11.4942 63.6974 11.3766L63.204 11.4577ZM63.2625 11.8115L62.7692 11.8933C62.7813 11.9662 62.7933 12.0392 62.8053 12.1124L63.2988 12.0315L63.7922 11.9506C63.7801 11.8771 63.768 11.8034 63.7558 11.7296L63.2625 11.8115ZM63.2988 12.0315L62.8054 12.1127C62.8111 12.1471 62.8168 12.1815 62.8225 12.2158L63.3157 12.1332L63.8088 12.0506C63.8032 12.0172 63.7976 11.9837 63.7921 11.9502L63.2988 12.0315ZM63.3157 12.1332L62.8225 12.2158C62.8301 12.261 62.8375 12.3065 62.8451 12.353L63.3386 12.2725L63.8321 12.1919C63.8245 12.1456 63.8167 12.0982 63.8088 12.0507L63.3157 12.1332ZM63.3386 12.2725L62.8453 12.3541C62.8495 12.3797 62.8539 12.4063 62.8583 12.4327L63.3516 12.351L63.8449 12.2694C63.8404 12.2424 63.8362 12.2171 63.8319 12.1908L63.3386 12.2725ZM63.3516 12.351L62.8552 12.4109C62.8631 12.477 62.8596 12.4922 62.8601 12.4894C62.8606 12.4867 62.8616 12.4836 62.8622 12.482C62.8626 12.4811 62.8606 12.4862 62.8523 12.4986L63.2669 12.778L63.6816 13.0574C63.7629 12.9368 63.8198 12.8074 63.8453 12.6608C63.8694 12.5225 63.8605 12.395 63.848 12.2912L63.3516 12.351ZM63.2669 12.778L62.9223 12.4157C62.9128 12.4248 62.9097 12.4265 62.9122 12.4248C62.9153 12.4227 62.9227 12.4183 62.9334 12.4141C62.9441 12.4099 62.9529 12.408 62.9575 12.4073C62.9613 12.4067 62.9586 12.4075 62.9465 12.4072L62.9354 12.9071L62.9243 13.407C63.0419 13.4096 63.1691 13.3959 63.2989 13.3449C63.4283 13.2941 63.5294 13.2184 63.6115 13.1403L63.2669 12.778ZM62.9354 12.9071L63.023 12.4148C62.9694 12.4053 62.9279 12.3766 62.7355 12.2702L62.4935 12.7077L62.2515 13.1452C62.3391 13.1937 62.5829 13.3523 62.8479 13.3994L62.9354 12.9071ZM62.4935 12.7077L62.7342 12.2695C62.7118 12.2571 62.6893 12.2448 62.6662 12.2321L62.4255 12.6704L62.1848 13.1086C62.2079 13.1213 62.2303 13.1336 62.2528 13.146L62.4935 12.7077ZM62.4255 12.6704L62.6665 12.2323C62.522 12.1528 62.3776 12.0724 62.2328 11.9913L61.9885 12.4276L61.7443 12.8638C61.8902 12.9455 62.037 13.0273 62.1845 13.1085L62.4255 12.6704ZM61.9885 12.4276L62.2326 11.9912C62.0765 11.9038 61.9201 11.8176 61.7651 11.7322L61.5238 12.1701L61.2825 12.608C61.4377 12.6936 61.5914 12.7783 61.7444 12.8639L61.9885 12.4276ZM61.5238 12.1701L61.7652 11.7322C61.7367 11.7166 61.7083 11.7009 61.6799 11.6852L61.4384 12.1231L61.197 12.5609C61.2254 12.5766 61.2539 12.5923 61.2823 12.608L61.5238 12.1701ZM61.4384 12.1231L61.6799 11.6852C61.594 11.6379 61.5082 11.5905 61.4223 11.5432L61.181 11.9811L60.9396 12.419C61.0255 12.4663 61.1112 12.5136 61.197 12.5609L61.4384 12.1231ZM61.181 11.9811L61.4223 11.5432C61.0963 11.3636 60.7711 11.1843 60.4464 11.0041L60.2038 11.4413L59.9612 11.8785C60.2873 12.0595 60.6138 12.2395 60.9396 12.419L61.181 11.9811ZM60.2038 11.4413L60.4463 11.004C60.4058 10.9816 60.3653 10.9592 60.3251 10.9369L60.0831 11.3745L59.8411 11.8121C59.8814 11.8343 59.9214 11.8564 59.9613 11.8786L60.2038 11.4413ZM60.0831 11.3745L60.3255 10.9372C60.2169 10.877 60.1157 10.8205 60.0178 10.7616L59.7602 11.1901L59.5025 11.6186C59.6172 11.6876 59.7324 11.7518 59.8407 11.8118L60.0831 11.3745ZM59.7602 11.1901L60.0164 10.7608C59.9935 10.7471 59.9935 10.7471 59.9701 10.7331L59.7138 11.1625L59.4576 11.5918C59.481 11.6058 59.481 11.6058 59.504 11.6195L59.7602 11.1901ZM59.7138 11.1625L59.9718 10.7342C59.9372 10.7133 59.9021 10.6917 59.8649 10.6685L59.6013 11.0934L59.3378 11.5184C59.3753 11.5416 59.4152 11.5663 59.4559 11.5908L59.7138 11.1625ZM59.6013 11.0934L59.7998 10.6345C59.7305 10.6046 59.6291 10.5688 59.5014 10.5718C59.3996 10.5743 59.3054 10.6043 59.2889 10.6089L59.4232 11.0905L59.5575 11.5721C59.5818 11.5654 59.5839 11.5649 59.5834 11.565C59.5793 11.5659 59.5571 11.5708 59.5252 11.5716C59.4905 11.5724 59.4589 11.5681 59.4331 11.5617C59.4109 11.5563 59.3989 11.5506 59.4029 11.5524L59.6013 11.0934ZM59.4232 11.0905L59.2131 10.6368C59.1561 10.6632 59.1015 10.691 59.0495 10.7191L59.2871 11.159L59.5248 11.5989C59.5621 11.5787 59.5981 11.5605 59.6333 11.5442L59.4232 11.0905ZM59.2871 11.159L59.0504 10.7186C59.024 10.7328 58.9975 10.747 58.9703 10.7617L59.2069 11.2021L59.4436 11.6425C59.4709 11.6279 59.4974 11.6136 59.5238 11.5994L59.2871 11.159ZM59.2069 11.2021L58.9677 10.763C58.9391 10.7786 58.9105 10.7942 58.882 10.8098L59.1214 11.2487L59.3609 11.6877C59.3893 11.6721 59.4177 11.6566 59.4462 11.6411L59.2069 11.2021ZM59.1214 11.2487L58.8836 10.8089C58.854 10.8249 58.8245 10.8408 58.795 10.8568L59.0326 11.2967L59.2702 11.7367C59.2999 11.7206 59.3296 11.7046 59.3593 11.6885L59.1214 11.2487ZM59.0326 11.2967L58.7945 10.8571C58.5868 10.9696 58.3815 11.0845 58.1782 11.2004L58.4258 11.6348L58.6734 12.0692C58.8725 11.9557 59.0712 11.8445 59.2707 11.7364L59.0326 11.2967ZM58.4258 11.6348L58.1785 11.2003C58.0245 11.2879 57.8684 11.3734 57.7097 11.4588L57.9466 11.8991L58.1835 12.3394C58.3462 12.2519 58.5099 12.1623 58.6731 12.0694L58.4258 11.6348ZM57.9466 11.8991L57.7097 11.4588C57.5216 11.56 57.3346 11.6633 57.1485 11.7692L57.3958 12.2038L57.6431 12.6384C57.8219 12.5366 58.002 12.4371 58.1836 12.3394L57.9466 11.8991ZM57.3958 12.2038L57.1485 11.7692C56.9438 11.8857 56.7366 11.9994 56.5268 12.1123L56.7638 12.5525L57.0008 12.9928C57.2149 12.8776 57.4294 12.76 57.6431 12.6384L57.3958 12.2038ZM56.7638 12.5525L56.5266 12.1124C56.3678 12.198 56.2089 12.2857 56.0506 12.3767L56.2997 12.8102L56.5487 13.2438C56.6974 13.1583 56.8482 13.0751 57.001 12.9927L56.7638 12.5525ZM56.2997 12.8102L56.0519 12.3759C56.0316 12.3875 56.0186 12.3936 56.0108 12.3969C56.007 12.3985 56.0046 12.3993 56.0032 12.3998C56.0019 12.4002 56.0013 12.4003 56.0013 12.4003C56.0013 12.4003 56.0012 12.4004 56.001 12.4004C56.0007 12.4004 55.9996 12.4005 55.9976 12.4006C55.9935 12.4008 55.9838 12.4007 55.9662 12.3987L55.9075 12.8952L55.8489 13.3917C56.122 13.424 56.3332 13.3668 56.5475 13.2445L56.2997 12.8102ZM55.9075 12.8952L56.069 12.422C56.0688 12.4219 56.0735 12.4235 56.0809 12.428C56.0884 12.4325 56.0952 12.4378 56.1003 12.4427C56.1052 12.4473 56.1063 12.4494 56.104 12.4462C56.1014 12.4426 56.0959 12.4345 56.0873 12.4188L55.6497 12.6608L55.2122 12.9029C55.3115 13.0822 55.4642 13.2723 55.7461 13.3684L55.9075 12.8952ZM55.6497 12.6608L56.1241 12.5027C56.1254 12.5067 56.1158 12.4736 56.1314 12.3653C56.1385 12.3165 56.1486 12.2643 56.1612 12.2027C56.1727 12.1464 56.1881 12.074 56.1993 12.0069L55.7062 11.9243L55.2131 11.8417C55.2056 11.8861 55.1954 11.934 55.1815 12.0024C55.1685 12.0656 55.1532 12.1425 55.1417 12.2226C55.1201 12.372 55.101 12.5957 55.1754 12.8189L55.6497 12.6608ZM55.7062 11.9243L56.1995 12.0055C56.2053 11.9703 56.2111 11.935 56.2169 11.8998L55.7235 11.8189L55.2301 11.7379C55.2244 11.773 55.2186 11.808 55.2128 11.843L55.7062 11.9243ZM55.7235 11.8189L56.2169 11.8999C56.2292 11.8253 56.2415 11.7506 56.254 11.6758L55.7607 11.5938L55.2675 11.5118C55.255 11.5871 55.2425 11.6624 55.2301 11.7378L55.7235 11.8189ZM55.7607 11.5938L56.254 11.6758C56.2738 11.5567 56.2934 11.4375 56.3129 11.3188L55.8195 11.2377L55.3261 11.1566C55.3066 11.2753 55.2872 11.3936 55.2675 11.5118L55.7607 11.5938ZM55.8195 11.2377L56.3129 11.3189C56.3507 11.0888 56.3888 10.8586 56.4269 10.6284L55.9336 10.5468L55.4403 10.4651C55.4022 10.6955 55.3641 10.926 55.3261 11.1566L55.8195 11.2377ZM55.9336 10.5468L56.4269 10.6284C56.4755 10.3346 56.524 10.0406 56.5724 9.74658L56.079 9.66546L55.5856 9.58435C55.5374 9.87789 55.4888 10.1714 55.4403 10.4652L55.9336 10.5468ZM56.079 9.66546L56.5724 9.74661C56.5917 9.62896 56.6112 9.51131 56.6307 9.39363L56.1375 9.31165L55.6443 9.22968C55.6246 9.34784 55.6051 9.46606 55.5856 9.58432L56.079 9.66546ZM56.1375 9.31165L56.6308 9.39348C56.643 9.3198 56.6551 9.2462 56.6671 9.1728L56.1738 9.09177L55.6804 9.01074C55.6683 9.08395 55.6563 9.15694 55.6442 9.22983L56.1375 9.31165ZM56.1738 9.09177L56.6671 9.17308C56.6726 9.13953 56.6782 9.10601 56.6838 9.0725L56.1907 8.99002L55.6975 8.90753C55.6918 8.94185 55.6861 8.97616 55.6804 9.01046L56.1738 9.09177ZM56.1907 8.99002L56.6838 9.07245C56.6917 9.02512 56.6994 8.97794 56.707 8.93162L56.2136 8.85089L55.7201 8.77015C55.7125 8.8166 55.7051 8.86219 55.6975 8.90758L56.1907 8.99002ZM56.2136 8.85089L56.7069 8.93254C56.7138 8.89073 56.7128 8.89661 56.7199 8.854L56.2266 8.77234L55.7333 8.69069C55.7272 8.7274 55.7262 8.73329 55.7203 8.76923L56.2136 8.85089ZM56.2266 8.77234L56.7227 8.83455C56.7335 8.74881 56.7434 8.64386 56.7343 8.52204L56.2357 8.55926L55.7371 8.59649C55.7389 8.62117 55.738 8.65022 55.7305 8.71014L56.2266 8.77234ZM56.2357 8.55926L56.6238 8.24408C56.5664 8.17336 56.5099 8.11291 56.4395 8.04968L56.1053 8.42157L55.7711 8.79346C55.7994 8.81892 55.8202 8.84085 55.8475 8.87444L56.2357 8.55926ZM56.1053 8.42157L56.446 8.05561C56.4222 8.03345 56.3984 8.01121 56.3747 7.98888L56.032 8.3529L55.6892 8.71692C55.7143 8.74051 55.7394 8.76405 55.7646 8.78752L56.1053 8.42157ZM56.032 8.3529L56.3744 7.9886C56.3565 7.97178 56.3563 7.9716 56.3381 7.95443L55.9956 8.31874L55.6532 8.68304C55.6716 8.70038 55.6714 8.7002 55.6895 8.71721L56.032 8.3529ZM55.9956 8.31874L56.3471 7.96313C56.3208 7.93708 56.2938 7.90707 56.2592 7.86644L55.8788 8.19089L55.4983 8.51534C55.5392 8.56331 55.5876 8.61851 55.6441 8.67434L55.9956 8.31874ZM55.8788 8.19089L56.2562 7.86294C56.1584 7.75045 56.0577 7.64809 55.9622 7.55384L55.6109 7.90961L55.2596 8.26538C55.349 8.35369 55.4286 8.43512 55.5013 8.51884L55.8788 8.19089ZM55.6109 7.90961L55.9635 7.5551C55.947 7.53865 55.9304 7.52219 55.9134 7.50523L55.5608 7.85974L55.2082 8.21424C55.2252 8.23119 55.2418 8.24765 55.2583 8.26411L55.6109 7.90961ZM55.5608 7.85974L55.9134 7.50522C55.8607 7.45286 55.8081 7.40064 55.7556 7.34863L55.4036 7.7038L55.0517 8.05896C55.1041 8.11083 55.1562 8.16254 55.2082 8.21425L55.5608 7.85974ZM55.4036 7.7038L55.7556 7.34863C55.6867 7.28037 55.6178 7.21198 55.549 7.14348L55.1964 7.49798L54.8438 7.85249C54.913 7.92131 54.9823 7.99015 55.0517 8.05896L55.4036 7.7038ZM55.1964 7.49798L55.5477 7.14221C55.5321 7.12685 55.5166 7.11149 55.5005 7.09566L55.1492 7.45143L54.7979 7.8072C54.8139 7.82303 54.8295 7.83839 54.845 7.85376L55.1964 7.49798ZM55.1492 7.45143L55.5019 7.09696C55.4236 7.01909 55.3484 6.93723 55.2727 6.84945L54.8942 7.17617L54.5157 7.5029C54.6042 7.60537 54.6967 7.70648 54.7966 7.8059L55.1492 7.45143ZM54.8942 7.17617L55.2683 6.84441C55.185 6.75051 55.0973 6.66451 55.0247 6.5929L54.6734 6.94867L54.3221 7.30444C54.4002 7.38152 54.4629 7.44346 54.5201 7.50794L54.8942 7.17617ZM54.6734 6.94867L55.026 6.59417C55.0095 6.57771 54.9929 6.56125 54.9759 6.5443L54.6233 6.8988L54.2707 7.2533C54.2877 7.27026 54.3043 7.28671 54.3208 7.30317L54.6734 6.94867ZM54.6233 6.8988L54.9759 6.54429C54.9232 6.49192 54.8706 6.43971 54.8181 6.38769L54.4661 6.74286L54.1142 7.09802C54.1666 7.14989 54.2187 7.2016 54.2707 7.25331L54.6233 6.8988ZM54.4661 6.74286L54.8181 6.38769C54.7492 6.31943 54.6803 6.25105 54.6115 6.18254L54.2589 6.53705L53.9063 6.89155C53.9755 6.96037 54.0448 7.02921 54.1142 7.09802L54.4661 6.74286ZM54.2589 6.53705L54.6102 6.18128C54.5946 6.16592 54.5791 6.15055 54.563 6.13473L54.2117 6.4905L53.8604 6.84627C53.8764 6.86209 53.892 6.87746 53.9075 6.89282L54.2589 6.53705ZM54.2117 6.4905L54.5644 6.13603C54.484 6.05606 54.4069 5.97241 54.3301 5.88344L53.9516 6.2101L53.5731 6.53675C53.6636 6.64165 53.7579 6.74432 53.8591 6.84497L54.2117 6.4905ZM53.9516 6.2101L54.328 5.88103C54.2741 5.81926 54.2195 5.76363 54.1673 5.71289L53.819 6.07159L53.4706 6.4303C53.5105 6.469 53.5446 6.50426 53.5751 6.53916L53.9516 6.2101ZM53.819 6.07159L54.1693 5.71489C54.1451 5.69105 54.1451 5.69105 54.1203 5.66673L53.7699 6.02344L53.4196 6.38014C53.4443 6.40446 53.4443 6.40446 53.4686 6.4283L53.819 6.07159ZM53.7699 6.02344L54.119 5.66543C54.0853 5.63263 54.0516 5.59987 54.0179 5.56717L53.6698 5.92602L53.3216 6.28488C53.3547 6.31704 53.3878 6.34922 53.4209 6.38144L53.7699 6.02344ZM53.6698 5.92602L54.0205 5.56963C54.0044 5.55386 53.9884 5.53809 53.9719 5.52184L53.6212 5.87823L53.2705 6.23463C53.287 6.25088 53.3031 6.26665 53.3191 6.28242L53.6698 5.92602ZM53.6212 5.87823L53.9698 5.51981C53.9554 5.50578 53.941 5.49176 53.9261 5.47731L53.5775 5.83573L53.2289 6.19415C53.2437 6.2086 53.2582 6.22263 53.2726 6.23666L53.6212 5.87823ZM53.5775 5.83573L53.9524 5.50491C53.9553 5.50823 53.9633 5.51818 53.9713 5.53442C53.9793 5.55083 53.9835 5.56559 53.9854 5.57492C53.9869 5.58258 53.9861 5.58277 53.9856 5.56876C53.9854 5.56194 53.9853 5.55301 53.9854 5.54066C53.9855 5.52806 53.9857 5.51433 53.9861 5.49667L53.4862 5.48694L52.9863 5.47721C52.9837 5.60988 52.9663 5.89877 53.2026 6.16655L53.5775 5.83573ZM53.4862 5.48694L53.9833 5.54025C53.983 5.54284 53.9815 5.55453 53.9755 5.57158C53.9694 5.58932 53.9609 5.60565 53.9521 5.61898C53.944 5.63122 53.9384 5.63667 53.941 5.63399C53.9444 5.63042 53.9523 5.6228 53.971 5.60627L53.6405 5.23108L53.31 4.85589C53.2636 4.89677 53.1839 4.96788 53.1184 5.06687C53.0442 5.17885 53.0032 5.30133 52.989 5.43362L53.4862 5.48694ZM53.6405 5.23108L53.912 5.65098C53.8979 5.66005 53.897 5.65524 53.9362 5.64765C53.9555 5.64393 53.9787 5.64051 54.0117 5.63633C54.0391 5.63286 54.0865 5.62732 54.1265 5.62163L54.0561 5.12661L53.9856 4.6316C53.9549 4.63597 53.8305 4.64957 53.7463 4.66586C53.6435 4.68574 53.5053 4.72314 53.3691 4.81118L53.6405 5.23108ZM54.0561 5.12661L54.1305 5.62105C54.1634 5.61609 54.1963 5.6111 54.2292 5.60608L54.1538 5.1118L54.0784 4.61752C54.0461 4.62244 54.0139 4.62733 53.9817 4.63218L54.0561 5.12661ZM54.1538 5.1118L54.2289 5.60613C54.2952 5.59606 54.3616 5.58616 54.4282 5.5764L54.3556 5.08169L54.283 4.58699C54.215 4.59697 54.1469 4.60712 54.0787 4.61747L54.1538 5.1118ZM54.3556 5.08169L54.4284 5.57637C54.5515 5.55826 54.674 5.539 54.7937 5.52021L54.7162 5.02626L54.6386 4.53231C54.518 4.55124 54.4003 4.56973 54.2828 4.58701L54.3556 5.08169ZM54.7162 5.02626L54.7936 5.52023C54.9393 5.49739 55.0852 5.47502 55.2322 5.45241L55.1562 4.95822L55.0802 4.46403C54.9338 4.48654 54.7862 4.50918 54.6387 4.53229L54.7162 5.02626ZM55.1562 4.95822L55.2322 5.4524C55.2638 5.44755 55.2953 5.44269 55.3269 5.43784L55.2508 4.94366L55.1747 4.44948C55.1432 4.45433 55.1117 4.45919 55.0801 4.46404L55.1562 4.95822ZM55.2508 4.94366L55.3268 5.43784C55.4743 5.41515 55.6217 5.39248 55.7692 5.36984L55.6933 4.87563L55.6175 4.38142C55.4699 4.40408 55.3223 4.42677 55.1747 4.44948L55.2508 4.94366ZM55.6933 4.87563L55.7692 5.36984C55.938 5.34393 56.1068 5.31792 56.2756 5.29185L56.1992 4.79772L56.1229 4.30358C55.9544 4.32961 55.7859 4.35556 55.6175 4.38142L55.6933 4.87563ZM56.1992 4.79772L56.2755 5.29186C56.4073 5.27151 56.5391 5.25124 56.6709 5.23102L56.5951 4.7368L56.5193 4.24258C56.3872 4.26284 56.2551 4.28316 56.1229 4.30357L56.1992 4.79772ZM56.5951 4.7368L56.6709 5.23102C56.7493 5.219 56.8278 5.20693 56.9063 5.19476L56.8298 4.70065L56.7532 4.20655C56.6754 4.21861 56.5974 4.2306 56.5193 4.24258L56.5951 4.7368ZM56.8298 4.70065L56.9062 5.19477C56.9923 5.18146 57.0785 5.16826 57.165 5.15505L57.0895 4.66078L57.0139 4.16652C56.9273 4.17976 56.8404 4.19307 56.7533 4.20653L56.8298 4.70065ZM57.0895 4.66078L57.1665 5.15482C57.1915 5.15091 57.218 5.14678 57.2438 5.14275L57.1668 4.64872L57.0898 4.15469C57.063 4.15887 57.0385 4.16269 57.0124 4.16675L57.0895 4.66078ZM57.1668 4.64872L57.2418 5.14307C57.3561 5.12574 57.4193 5.11854 57.4785 5.12124L57.5013 4.62176L57.5241 4.12229C57.355 4.11456 57.2025 4.1376 57.0919 4.15437L57.1668 4.64872ZM57.5013 4.62176L57.9788 4.77013C57.9845 4.75165 57.9851 4.74979 57.991 4.73093L57.5135 4.58257L57.036 4.43421C57.0336 4.44201 57.0261 4.46601 57.0238 4.4734L57.5013 4.62176ZM57.5135 4.58257L57.9896 4.7352C58.0226 4.63232 58.0628 4.53407 58.1126 4.43128L57.6627 4.21316L57.2128 3.99505C57.1453 4.13434 57.0866 4.27642 57.0373 4.42994L57.5135 4.58257ZM57.6627 4.21316L58.1138 4.42874C58.1225 4.41064 58.1315 4.39181 58.1404 4.37315L57.6893 4.15758L57.2381 3.942C57.229 3.96114 57.2204 3.979 57.2116 3.99759L57.6627 4.21316ZM57.6893 4.15758L58.1403 4.37331C58.1589 4.33446 58.1776 4.29561 58.1963 4.25678L57.7458 4.03982L57.2953 3.82286C57.2762 3.86248 57.2572 3.90214 57.2382 3.94184L57.6893 4.15758ZM57.7458 4.03982L58.1963 4.25677C58.2266 4.19386 58.2566 4.13102 58.2865 4.06853L57.8354 3.85293L57.3843 3.63733C57.3545 3.6995 57.325 3.76129 57.2953 3.82287L57.7458 4.03982ZM57.8354 3.85293L58.2865 4.06853C58.3171 4.00444 58.3477 3.94048 58.3783 3.87659L57.9274 3.66062L57.4764 3.44466C57.4456 3.50893 57.4149 3.57319 57.3843 3.63732L57.8354 3.85293ZM57.9274 3.66062L58.3783 3.87657C58.4752 3.67435 58.5708 3.47196 58.6657 3.27001L58.2132 3.05731L57.7607 2.84461C57.6663 3.04546 57.5718 3.24547 57.4764 3.44467L57.9274 3.66062ZM58.2132 3.05731L58.6657 3.27015C58.6734 3.25377 58.6811 3.23739 58.689 3.22052L58.2366 3.00769L57.7841 2.79485C57.7762 2.81173 57.7685 2.8281 57.7608 2.84448L58.2132 3.05731ZM58.2366 3.00769L58.689 3.2205C58.7923 3.00096 58.8947 2.78121 58.9965 2.5614L58.5428 2.35126L58.0891 2.14112C57.988 2.3595 57.8864 2.57743 57.7841 2.79488L58.2366 3.00769ZM58.5428 2.35126L58.9964 2.56161C59.0475 2.45142 59.0987 2.34129 59.1499 2.23122L58.6966 2.0202L58.2433 1.80918C58.1919 1.91974 58.1405 2.03032 58.0892 2.1409L58.5428 2.35126ZM58.6966 2.0202L59.1499 2.23122C59.1619 2.20538 59.1619 2.20538 59.1742 2.17902L58.7209 1.968L58.2676 1.75698C58.2554 1.78334 58.2554 1.78334 58.2433 1.80918L58.6966 2.0202ZM58.7209 1.968L59.1742 2.17912C59.2271 2.06541 59.2803 1.95177 59.3336 1.83821L58.881 1.62575L58.4283 1.41328C58.3746 1.52773 58.3211 1.64226 58.2677 1.75687L58.7209 1.968ZM58.881 1.62575L59.3337 1.83799C59.3513 1.8003 59.369 1.76257 59.3866 1.72481L58.9334 1.51361L58.4802 1.3024C58.4629 1.33944 58.4456 1.37647 58.4282 1.4135L58.881 1.62575ZM58.9334 1.51361L59.3865 1.72489C59.4481 1.5929 59.4917 1.49948 59.5257 1.42952C59.5609 1.35711 59.578 1.3264 59.5861 1.31339C59.5904 1.30657 59.5778 1.32786 59.5488 1.35217C59.5292 1.3686 59.5111 1.37711 59.5525 1.35365L59.306 0.918639L59.0595 0.483628C59.0362 0.496832 58.9695 0.532841 58.9059 0.586198C58.833 0.647426 58.7809 0.715072 58.7386 0.78262C58.671 0.890632 58.593 1.06041 58.4802 1.30232L58.9334 1.51361ZM59.306 0.918639L59.4641 1.39298C59.4829 1.38671 59.4989 1.38591 59.5238 1.39469L59.6898 0.923034L59.8557 0.451378C59.6279 0.371216 59.3839 0.36563 59.1479 0.444298L59.306 0.918639Z" fill="#FFC106" mask="url(#path-5-inside-1_1_410)"/>
<path fill-rule="evenodd" clip-rule="evenodd" d="M59.426 11.0897C59.4591 11.0805 59.4826 11.0739 59.5048 11.0721V0.888358C59.4384 0.886714 59.3718 0.896679 59.306 0.918639C59.1766 0.991966 59.1766 0.991966 58.9333 1.51361L58.8809 1.62575C58.8274 1.73975 58.7741 1.85383 58.7209 1.968L58.6966 2.0202L58.5428 2.35126C58.4413 2.57035 58.3393 2.78919 58.2365 3.00769L58.2132 3.05731C58.1185 3.25871 58.0234 3.45991 57.9273 3.66062L57.8354 3.85293C57.8056 3.91526 57.7757 3.97757 57.7458 4.03982L57.6892 4.15758L57.6627 4.21316C57.604 4.3342 57.5545 4.45437 57.5134 4.58257L57.5013 4.62176C57.3871 4.61655 57.2792 4.63167 57.1668 4.64872L57.0894 4.66078C57.0029 4.67401 56.9163 4.68726 56.8298 4.70065L56.5951 4.7368L56.1992 4.79772L55.6933 4.87563L55.2508 4.94366L55.1561 4.95822L55.1096 4.96538C54.9784 4.98555 54.8472 5.00572 54.7161 5.02626L54.7099 5.02724C54.5919 5.04577 54.4738 5.0643 54.3556 5.08169C54.2883 5.09156 54.221 5.10159 54.1538 5.1118L54.056 5.12661C54.0318 5.13006 54.0072 5.13308 53.9826 5.13611C53.8636 5.15071 53.7417 5.16568 53.6405 5.23108C53.5527 5.30845 53.499 5.36667 53.4861 5.48694C53.4834 5.6261 53.4823 5.72785 53.5775 5.83573L53.6212 5.87823L53.6697 5.92602L53.7699 6.02344L53.8189 6.07159C53.865 6.11631 53.9093 6.16176 53.9516 6.2101C54.0352 6.30703 54.1209 6.40019 54.2117 6.4905L54.2588 6.53705L54.4661 6.74286L54.6232 6.8988L54.6734 6.94867L54.6807 6.95586C54.7535 7.02779 54.8262 7.09954 54.8942 7.17617C54.9763 7.2713 55.0601 7.36279 55.1492 7.45143L55.1963 7.49798L55.4036 7.7038L55.5607 7.85974L55.6109 7.90961C55.7033 8.00089 55.7935 8.09279 55.8787 8.19089C55.9165 8.23519 55.9542 8.2778 55.9956 8.31874L56.0319 8.3529L56.1053 8.42157C56.1546 8.46592 56.1933 8.5071 56.2356 8.55926C56.2411 8.63252 56.2357 8.69951 56.2266 8.77234L56.2136 8.85089C56.206 8.89727 56.1984 8.94366 56.1906 8.99002L56.1737 9.09177L56.1375 9.31165C56.1179 9.42957 56.0984 9.54751 56.079 9.66546C56.0307 9.95926 55.9821 10.253 55.9335 10.5468C55.8954 10.7771 55.8574 11.0074 55.8195 11.2377C55.8 11.3564 55.7804 11.4751 55.7607 11.5938L55.7235 11.8189L55.7062 11.9243C55.6983 11.9714 55.6879 12.0217 55.6772 12.0738C55.6372 12.2683 55.5921 12.4879 55.6497 12.6608C55.7127 12.7748 55.7828 12.8526 55.9075 12.8952C56.0607 12.9133 56.1655 12.8868 56.2996 12.8102C56.4531 12.722 56.608 12.6365 56.7638 12.5525C56.9757 12.4385 57.1866 12.3228 57.3958 12.2038C57.5782 12.1 57.7617 11.9986 57.9466 11.8991C58.1073 11.8126 58.2672 11.7251 58.4258 11.6348C58.627 11.5201 58.8289 11.407 59.0326 11.2967L59.1214 11.2487L59.2069 11.2021L59.2871 11.159C59.3318 11.1349 59.3771 11.1118 59.4231 11.0905L59.426 11.0897Z" fill="#FFC106"/>
</g>
<defs>
<clipPath id="clip0_1_410">
<rect width="12" height="12" fill="white" transform="translate(0.160172 0.89502)"/>
</clipPath>
<clipPath id="clip1_1_410">
<rect width="12" height="12" fill="white" transform="translate(13.4935 0.89502)"/>
</clipPath>
<clipPath id="clip2_1_410">
<rect width="12" height="12" fill="white" transform="translate(26.8269 0.89502)"/>
</clipPath>
<clipPath id="clip3_1_410">
<rect width="12" height="12" fill="white" transform="translate(40.1603 0.89502)"/>
</clipPath>
<clipPath id="clip4_1_410">
<rect width="12" height="12" fill="white" transform="translate(53.4936 0.89502)"/>
</clipPath>
</defs>
</svg>
