<svg width="25" height="25" viewBox="0 0 25 25" fill="none" xmlns="http://www.w3.org/2000/svg">
<g clip-path="url(#clip0_168_57)">
<path d="M6.944 0.910524C6.9865 0.910286 7.029 0.910048 7.07278 0.909803C7.11977 0.90978 7.16676 0.909757 7.21517 0.909733C7.26485 0.909527 7.31453 0.909322 7.36572 0.90911C7.53331 0.908481 7.7009 0.908192 7.86848 0.907906C7.98819 0.907536 8.1079 0.907148 8.2276 0.906744C8.58762 0.90562 8.94764 0.904909 9.30766 0.904304C9.40931 0.90413 9.51096 0.903944 9.6126 0.903753C10.2436 0.90257 10.8745 0.901536 11.5055 0.900953C11.6517 0.900816 11.7979 0.900677 11.944 0.900536C11.9985 0.900483 11.9985 0.900483 12.0541 0.90043C12.6429 0.899836 13.2317 0.898279 13.8205 0.896326C14.4248 0.894339 15.029 0.893233 15.6332 0.892988C15.9726 0.892828 16.3119 0.892276 16.6513 0.890733C16.9704 0.889285 17.2896 0.889026 17.6087 0.889579C17.726 0.88959 17.8433 0.889197 17.9606 0.888377C18.1204 0.88732 18.2802 0.887699 18.44 0.888446C18.4867 0.887796 18.5334 0.887145 18.5815 0.886475C18.8008 0.88901 18.8976 0.89146 19.0752 1.03006C19.2152 1.21977 19.2181 1.32183 19.2206 1.55751C19.221 1.58961 19.2213 1.6217 19.2217 1.65477C19.2229 1.76119 19.2237 1.8676 19.2244 1.97401C19.2246 2.01035 19.2249 2.04669 19.2251 2.08413C19.2264 2.27649 19.2273 2.46884 19.2279 2.6612C19.2287 2.85982 19.2308 3.0584 19.2332 3.257C19.2348 3.40978 19.2353 3.56254 19.2356 3.71532C19.2359 3.78852 19.2366 3.86173 19.2377 3.93493C19.2392 4.0375 19.2392 4.13998 19.2389 4.24257C19.2393 4.30089 19.2396 4.35921 19.24 4.41929C19.2038 4.61508 19.1289 4.68321 18.9772 4.80757C18.8628 4.86475 18.7897 4.8601 18.6619 4.85977C18.6159 4.85976 18.57 4.85976 18.5226 4.85976C18.4728 4.85952 18.4231 4.85927 18.3718 4.85902C18.2955 4.85892 18.2955 4.85892 18.2177 4.85882C18.0549 4.85856 17.892 4.85797 17.7291 4.85738C17.6189 4.85714 17.5087 4.85693 17.3984 4.85674C17.1278 4.85622 16.8572 4.85543 16.5865 4.85445C16.5787 4.88251 16.5708 4.91057 16.5627 4.93948C16.4754 5.2413 16.3687 5.53064 16.2496 5.82124C16.2324 5.86384 16.2151 5.90644 16.1973 5.95033C16.1554 6.05387 16.1132 6.15732 16.0709 6.2607C16.116 6.26038 16.1611 6.26007 16.2075 6.25975C16.633 6.2569 17.0585 6.25479 17.4841 6.25341C17.7028 6.25268 17.9215 6.25168 18.1403 6.25009C18.3515 6.24856 18.5627 6.24772 18.774 6.24735C18.8544 6.2471 18.9349 6.24659 19.0153 6.24583C19.1283 6.2448 19.2413 6.24467 19.3543 6.24473C19.3873 6.24423 19.4203 6.24372 19.4543 6.2432C19.6842 6.24462 19.8548 6.28877 20.0553 6.40132C20.194 6.58339 20.2135 6.71889 20.2137 6.94499C20.214 6.97558 20.2142 7.00618 20.2144 7.03769C20.215 7.14036 20.2145 7.24299 20.2141 7.34565C20.2143 7.41994 20.2145 7.49422 20.2148 7.5685C20.2155 7.77275 20.2153 7.97699 20.215 8.18124C20.2148 8.40146 20.2153 8.62168 20.2158 8.8419C20.2166 9.27337 20.2167 9.70483 20.2164 10.1363C20.2162 10.4869 20.2163 10.8375 20.2166 11.1881C20.2166 11.2379 20.2166 11.2878 20.2167 11.3392C20.2167 11.4404 20.2168 11.5417 20.2169 11.643C20.2175 12.5932 20.2173 13.5433 20.2167 14.4935C20.2163 15.3632 20.2169 16.233 20.218 17.1028C20.2191 17.9954 20.2196 18.888 20.2193 19.7806C20.2191 20.2819 20.2192 20.7832 20.22 21.2846C20.2207 21.7113 20.2208 22.138 20.2199 22.5647C20.2195 22.7825 20.2194 23.0003 20.2202 23.2182C20.2208 23.4174 20.2206 23.6167 20.2197 23.816C20.2195 23.8882 20.2196 23.9604 20.2201 24.0326C20.2207 24.1305 20.2202 24.2284 20.2194 24.3264C20.2194 24.3809 20.2194 24.4353 20.2194 24.4914C20.1909 24.6665 20.1309 24.7443 20.0084 24.8701C19.8916 24.9285 19.8134 24.923 19.6827 24.9232C19.6333 24.9234 19.584 24.9237 19.5331 24.9239C19.4785 24.9239 19.4238 24.9239 19.3675 24.9238C19.3098 24.924 19.2521 24.9242 19.1926 24.9244C19.0319 24.9248 18.8711 24.925 18.7104 24.9251C18.5372 24.9253 18.3641 24.9258 18.1909 24.9262C17.7725 24.9271 17.3541 24.9276 16.9357 24.928C16.7388 24.9282 16.5419 24.9284 16.3449 24.9287C15.6906 24.9295 15.0362 24.9302 14.3819 24.9305C14.212 24.9306 14.0421 24.9307 13.8723 24.9308C13.83 24.9308 13.7878 24.9308 13.7443 24.9309C13.06 24.9312 12.3758 24.9324 11.6915 24.934C10.9894 24.9355 10.2873 24.9363 9.58515 24.9365C9.19076 24.9366 8.79639 24.937 8.40201 24.9382C8.0662 24.9392 7.7304 24.9396 7.39459 24.9391C7.2232 24.9389 7.05182 24.939 6.88043 24.9399C6.69475 24.9409 6.50908 24.9404 6.32339 24.9398C6.24189 24.9406 6.24189 24.9406 6.15874 24.9414C5.79437 24.9384 5.79437 24.9384 5.60884 24.8276C5.46579 24.662 5.4712 24.5601 5.47087 24.3438C5.47076 24.3134 5.47065 24.283 5.47054 24.2517C5.47022 24.1488 5.47024 24.0459 5.47026 23.943C5.47011 23.8688 5.46993 23.7947 5.46974 23.7206C5.46927 23.5161 5.4691 23.3116 5.46897 23.1072C5.46879 22.8869 5.46834 22.6667 5.46793 22.4465C5.467 21.9143 5.46653 21.382 5.46612 20.8498C5.46591 20.5994 5.46566 20.3489 5.46541 20.0985C5.46461 19.2663 5.46394 18.4341 5.4636 17.6018C5.46351 17.3858 5.46342 17.1697 5.46333 16.9536C5.4633 16.8999 5.46328 16.8462 5.46326 16.7909C5.46287 15.9205 5.46168 15.0502 5.46016 14.1798C5.45861 13.2869 5.45776 12.3939 5.45761 11.5009C5.45751 10.9993 5.4571 10.4977 5.4559 9.99609C5.45489 9.56897 5.45451 9.14186 5.45496 8.71473C5.45518 8.49672 5.45509 8.27873 5.45418 8.06072C5.45336 7.8612 5.4534 7.66171 5.45413 7.46219C5.45424 7.38995 5.45403 7.31771 5.45348 7.24548C5.45277 7.14734 5.45322 7.04928 5.45396 6.95116C5.45391 6.89663 5.45387 6.84211 5.45382 6.78594C5.48252 6.60117 5.54826 6.49922 5.66466 6.35445C5.87357 6.25209 6.08033 6.24646 6.30917 6.24575C6.34441 6.24528 6.37966 6.24481 6.41597 6.24432C6.53162 6.24288 6.64727 6.24208 6.76293 6.24129C6.84345 6.24041 6.92397 6.23949 7.00449 6.23854C7.21579 6.23614 7.42709 6.23428 7.63839 6.23253C7.85426 6.23065 8.07013 6.22826 8.286 6.22591C8.70909 6.22138 9.13219 6.21747 9.55529 6.21382C9.30005 5.56413 9.30005 5.56413 9.03966 4.90132C8.8805 4.90011 8.72134 4.8989 8.55736 4.89766C8.40284 4.89586 8.24832 4.89374 8.09381 4.89159C7.9866 4.89027 7.87939 4.88928 7.77218 4.88862C7.61787 4.88761 7.46361 4.88543 7.30931 4.88301C7.26155 4.88295 7.21379 4.8829 7.16457 4.88284C6.88596 4.87712 6.72032 4.85357 6.50841 4.66695C6.44003 4.53019 6.45443 4.40919 6.45324 4.25646C6.45293 4.2239 6.45262 4.19135 6.45231 4.15781C6.45138 4.04987 6.45083 3.94194 6.45037 3.834C6.45018 3.79714 6.44998 3.76029 6.44979 3.72231C6.44881 3.52722 6.44814 3.33214 6.4477 3.13704C6.44718 2.93559 6.44557 2.73417 6.44371 2.53272C6.44248 2.37778 6.44209 2.22284 6.44192 2.0679C6.44169 1.99365 6.44115 1.91939 6.44028 1.84515C6.43914 1.74112 6.43918 1.63716 6.43951 1.53313C6.43923 1.47398 6.43896 1.41482 6.43867 1.35388C6.46558 1.17066 6.52004 1.09406 6.64904 0.963822C6.75841 0.909135 6.82215 0.910885 6.944 0.910524ZM7.49279 1.90132C7.49279 2.53554 7.49279 3.16976 7.49279 3.8232C11.0197 3.8232 14.5465 3.8232 18.1803 3.8232C18.1803 3.18898 18.1803 2.55476 18.1803 1.90132C14.6534 1.90132 11.1265 1.90132 7.49279 1.90132ZM10.1647 4.85445C10.2758 5.19078 10.2758 5.19078 10.3994 5.52095C10.4157 5.56168 10.4319 5.6024 10.4487 5.64436C10.4734 5.70582 10.4734 5.70582 10.4986 5.76851C10.5239 5.83214 10.5239 5.83214 10.5497 5.89705C10.5659 5.93729 10.582 5.97754 10.5986 6.019C10.6132 6.05534 10.6278 6.09169 10.6428 6.12914C10.6738 6.21301 10.6738 6.21301 10.7272 6.2607C10.8584 6.26516 10.9885 6.26658 11.1198 6.26602C11.1815 6.26603 11.1815 6.26603 11.2445 6.26604C11.3812 6.26601 11.5179 6.26564 11.6546 6.26527C11.7491 6.26519 11.8436 6.26512 11.9381 6.26507C12.1874 6.26489 12.4367 6.26443 12.686 6.26392C12.9402 6.26344 13.1944 6.26322 13.4486 6.26299C13.9477 6.26248 14.4468 6.26168 14.9459 6.2607C15.0197 6.08316 15.0931 5.90549 15.1662 5.72769C15.1911 5.66723 15.2161 5.6068 15.2412 5.54641C15.2773 5.45959 15.313 5.37263 15.3487 5.28566C15.3703 5.23337 15.3919 5.18109 15.4142 5.12722C15.4694 4.9964 15.4694 4.9964 15.4615 4.85445C13.7136 4.85445 11.9656 4.85445 10.1647 4.85445ZM6.50841 7.29195C6.50841 12.7834 6.50841 18.2748 6.50841 23.9326C10.685 23.9326 14.8615 23.9326 19.1647 23.9326C19.1647 18.4412 19.1647 12.9498 19.1647 7.29195C14.9881 7.29195 10.8115 7.29195 6.50841 7.29195Z" fill="#121212"/>
<path d="M14.305 15.6841L14.4552 15.7614L16.085 12.8593C15.3252 12.0995 14.2514 11.6216 12.7593 11.6216C11.2672 11.6216 9.41156 12.4299 9.41156 13.8284C9.41156 15.6344 12.0118 16.0208 13.8178 16.5934C13.4875 17.1221 13.1558 17.6497 12.7373 18.0461C12.0215 17.3193 11.7517 16.3984 10.5966 16.3725C9.44148 16.3465 8.9502 17.254 8.9502 18.0799C8.9502 18.8617 9.48979 19.6216 10.6902 19.6216C11.6813 19.6216 12.0325 19.1583 12.7373 18.3655C13.365 18.9931 13.8059 19.6107 14.8356 19.6107C15.8652 19.6107 16.6983 18.7178 16.6983 17.7708C16.6983 14.8244 10.2671 15.2468 10.2671 13.3659C10.2671 12.3307 11.6306 11.9783 12.7483 11.9783C13.866 11.9783 14.9727 12.3858 14.9727 13.7623C14.9727 14.1808 14.6023 15.0785 14.305 15.6841ZM15.4431 17.5678C15.6786 17.9172 15.6787 18.2346 15.567 18.5989C15.4526 18.9717 15.1395 19.2706 14.6868 19.2609C14.0592 19.2474 13.4861 18.8169 12.8804 18.1893C13.2879 17.6937 13.7366 17.1715 14.0559 16.6649C14.7276 16.8852 15.2077 17.2183 15.4431 17.5678ZM9.53656 17.6972C9.51984 17.2237 9.87875 16.6719 10.7076 16.7336C11.5364 16.7953 11.7781 17.579 12.5721 18.1893C11.4534 19.1091 9.53656 19.1184 9.53656 17.6972Z" fill="#9E9E9E"/>
</g>
<defs>
<clipPath id="clip0_168_57">
<rect width="24" height="24" fill="white" transform="translate(0.836914 0.916992)"/>
</clipPath>
</defs>
</svg>
